<?xml version="1.0" encoding="UTF-8"?>
<svg id="Ebene_1" xmlns="http://www.w3.org/2000/svg" version="1.1" viewBox="0 0 49 49">
  <!-- Generator: Adobe Illustrator 29.8.2, SVG Export Plug-In . SVG Version: 2.1.1 Build 3)  -->
  <path d="M24.51,11.94c-6.95,0-12.56,5.61-12.56,12.56s5.61,12.56,12.56,12.56,12.56-5.61,12.56-12.56-5.61-12.56-12.56-12.56ZM24.51,32.67c-4.49,0-8.17-3.66-8.17-8.17s3.66-8.17,8.17-8.17,8.17,3.66,8.17,8.17-3.67,8.17-8.17,8.17ZM40.51,11.42c0,1.63-1.31,2.93-2.93,2.93s-2.93-1.31-2.93-2.93,1.31-2.93,2.93-2.93,2.93,1.31,2.93,2.93ZM48.83,14.4c-.19-3.93-1.08-7.4-3.96-10.27-2.86-2.86-6.34-3.76-10.26-3.96C30.56-.06,18.44-.06,14.39.17c-3.91.19-7.39,1.08-10.26,3.95C1.25,6.98.37,10.46.17,14.39-.06,18.43-.06,30.56.17,34.6c.19,3.93,1.08,7.4,3.96,10.27,2.87,2.86,6.34,3.76,10.26,3.96,4.04.23,16.17.23,20.21,0,3.92-.19,7.4-1.08,10.26-3.96,2.86-2.86,3.76-6.34,3.96-10.27.23-4.05.23-16.16,0-20.21ZM43.6,38.94c-.85,2.14-2.5,3.79-4.66,4.66-3.22,1.28-10.88.98-14.44.98s-11.23.28-14.44-.98c-2.14-.85-3.79-2.5-4.66-4.66-1.28-3.23-.98-10.88-.98-14.44s-.28-11.23.98-14.44c.85-2.14,2.5-3.79,4.66-4.66,3.22-1.28,10.88-.98,14.44-.98s11.23-.28,14.44.98c2.14.85,3.79,2.5,4.66,4.66,1.28,3.23.98,10.88.98,14.44s.3,11.23-.98,14.44Z" fill="#94b3e6"/>
  <path d="M-146.73-73.07c-8.71,47.24-19.24,97.75-57.68,131.76-39.6,35.05-99.87,44.51-146.64,71.97-43.1,25.3-74.69,65.85-122.98,82.52-68.87,23.77-151.01-12.54-188.13-68.61-37.11-56.08-37.18-125.62-22.17-189.09,27-114.14,100.54-219.41,204.3-292.46,72.36-50.94,257.72-148.97,352.7-96.78,57.65,31.68,28.4,101.32,19.7,148.51-13.04,70.73-26.07,141.46-39.11,212.18Z" fill="#94b3e6"/>
</svg>