<?xml version="1.0" encoding="UTF-8"?>
<svg id="Ebene_1" xmlns="http://www.w3.org/2000/svg" version="1.1" viewBox="0 0 71 49">
  <!-- Generator: Adobe Illustrator 29.8.2, SVG Export Plug-In . SVG Version: 2.1.1 Build 3)  -->
  <path d="M69.52,7.67c-.82-3.02-3.22-5.39-6.28-6.2-5.54-1.47-27.74-1.47-27.74-1.47,0,0-22.2,0-27.74,1.47-3.05.81-5.46,3.18-6.28,6.2C0,13.14,0,24.55,0,24.55c0,0,0,11.41,1.48,16.88.82,3.02,3.22,5.3,6.28,6.1,5.54,1.47,27.74,1.47,27.74,1.47,0,0,22.2,0,27.74-1.47,3.05-.81,5.46-3.08,6.28-6.1,1.48-5.47,1.48-16.88,1.48-16.88,0,0,0-11.41-1.48-16.88ZM28.24,34.91V14.19l18.56,10.36-18.56,10.36Z" fill="#94b3e6"/>
</svg>