<?xml version="1.0" encoding="UTF-8"?>
<svg id="Ebene_1" data-name="Ebene 1" xmlns="http://www.w3.org/2000/svg" viewBox="0 0 185.54 174.8">
  <defs>
    <style>
      .cls-1 {
        fill: #464259;
      }

      .cls-2 {
        fill: none;
        stroke: #464259;
        stroke-linecap: round;
        stroke-linejoin: round;
        stroke-width: 15px;
      }
    </style>
  </defs>
  <path class="cls-1" d="M105.39,52.53H38.19c-4.14,0-7.5-3.36-7.5-7.5s3.36-7.5,7.5-7.5h67.2c4.14,0,7.5,3.36,7.5,7.5s-3.36,7.5-7.5,7.5Z"/>
  <path class="cls-1" d="M123.57,136.14v23.67H15V15h108.57v23.86l15-15V7.5c0-4.14-3.36-7.5-7.5-7.5H7.5C3.36,0,0,3.36,0,7.5v159.8c0,4.14,3.36,7.5,7.5,7.5h123.57c4.14,0,7.5-3.36,7.5-7.5v-46.17l-15,15Z"/>
  <polygon class="cls-2" points="156.28 33.02 178.04 54.79 100.07 132.77 69.28 141.78 78.3 111 156.28 33.02"/>
  <path class="cls-1" d="M97.99,64.44h-59.79c-4.14,0-7.5,3.36-7.5,7.5s3.36,7.5,7.5,7.5h44.79l15-15Z"/>
</svg>