<?xml version="1.0" encoding="UTF-8"?>
<svg id="Ebene_1" xmlns="http://www.w3.org/2000/svg" version="1.1" viewBox="0 0 49 49">
  <!-- Generator: Adobe Illustrator 29.8.2, SVG Export Plug-In . SVG Version: 2.1.1 Build 3)  -->
  <path d="M43.75,0H5.25c-1.39,0-2.73.55-3.71,1.54-.98.98-1.54,2.32-1.54,3.71v38.5c0,1.39.55,2.73,1.54,3.71.98.98,2.32,1.54,3.71,1.54h15.01v-16.66h-6.89v-7.84h6.89v-5.98c0-6.8,4.05-10.55,10.25-10.55,2.97,0,6.07.53,6.07.53v6.67h-3.42c-3.37,0-4.42,2.09-4.42,4.24v5.09h7.52l-1.2,7.84h-6.32v16.66h15.01c1.39,0,2.73-.55,3.71-1.54s1.54-2.32,1.54-3.71V5.25c0-1.39-.55-2.73-1.54-3.71-.98-.98-2.32-1.54-3.71-1.54Z" fill="#94b3e6"/>
  <path d="M-109.73-10.07c-8.71,47.24-19.24,97.75-57.68,131.76-39.6,35.05-99.87,44.51-146.64,71.97-43.1,25.3-74.69,65.85-122.98,82.52-68.87,23.77-151.01-12.54-188.13-68.61-37.11-56.08-37.18-125.62-22.17-189.09,27-114.14,100.54-219.41,204.3-292.46,72.36-50.94,257.72-148.97,352.7-96.78,57.65,31.68,28.4,101.32,19.7,148.51-13.04,70.73-26.07,141.46-39.11,212.18Z" fill="#94b3e6"/>
</svg>