<?xml version="1.0" encoding="UTF-8"?>
<svg id="Ebene_1" data-name="Ebene 1" xmlns="http://www.w3.org/2000/svg" viewBox="0 0 195.48 176.61">
  <defs>
    <style>
      .cls-1 {
        fill: #fe8b68;
      }
    </style>
  </defs>
  <path class="cls-1" d="M97.74,163.92c-16.53-13.13-62.41-51.02-80.25-80.61-9.02-14.97-10.04-36.18-2.48-51.58,6.05-12.32,17.08-19.74,31.91-21.45,1.6-.19,3.21-.28,4.78-.28,9.95,0,19.23,3.83,26.11,10.77,6.31,6.37,9.93,14.57,9.93,22.51,0,5.52,4.48,10,10,10s10-4.48,10-10c0-7.94,3.62-16.14,9.93-22.51,6.89-6.95,16.16-10.77,26.11-10.77,1.57,0,3.18.09,4.78.28,14.82,1.72,25.86,9.13,31.91,21.45,7.56,15.4,6.54,36.61-2.48,51.58-17.84,29.6-63.72,67.48-80.25,80.61Z"/>
  <path class="cls-1" d="M143.79,0v20c1.18,0,2.4.07,3.62.21,11.6,1.34,19.48,6.55,24.08,15.93,6.05,12.32,5.18,29.98-2.07,42-14.18,23.52-49.74,55.09-71.69,72.98-21.94-17.89-57.5-49.45-71.69-72.98-7.25-12.02-8.12-29.69-2.07-42,4.6-9.37,12.48-14.58,24.08-15.93,1.22-.14,2.44-.21,3.63-.21,16.77,0,26.05,13.77,26.05,23.28,0,11.05,8.95,20,20,20s20-8.95,20-20c0-9.51,9.28-23.28,26.05-23.28V0M143.79,0c-27.17,0-46.05,22.19-46.05,43.28C97.74,22.19,78.87,0,51.69,0,49.76,0,47.78.11,45.77.35-1.94,5.87-8.78,59.09,8.93,88.47c23.1,38.32,88.81,88.14,88.81,88.14,0,0,65.71-49.82,88.81-88.14C204.27,59.09,197.42,5.87,149.72.35,147.7.11,145.73,0,143.79,0h0Z"/>
</svg>