<?xml version="1.0" encoding="UTF-8"?>
<svg id="Ebene_1" data-name="Ebene 1" xmlns="http://www.w3.org/2000/svg" xmlns:xlink="http://www.w3.org/1999/xlink" viewBox="0 0 7868.88 3412.09">
  <defs>
    <style>
      .cls-1, .cls-2, .cls-3, .cls-4, .cls-5, .cls-6, .cls-7 {
        font-family: Calistoga-Regular, Calistoga;
      }

      .cls-1, .cls-4, .cls-6 {
        font-size: 100px;
      }

      .cls-1, .cls-8 {
        fill: #4a4b4d;
      }

      .cls-9, .cls-10, .cls-11, .cls-12, .cls-13, .cls-14, .cls-15, .cls-16, .cls-17 {
        fill: none;
      }

      .cls-18 {
        fill: #ffb96f;
      }

      .cls-19, .cls-20, .cls-21 {
        fill: #511f35;
      }

      .cls-22 {
        fill: #ffc248;
      }

      .cls-23 {
        fill: #d2e1fc;
      }

      .cls-24 {
        fill: #f7d6b3;
      }

      .cls-25, .cls-10, .cls-26, .cls-27, .cls-11, .cls-28, .cls-29, .cls-30, .cls-31, .cls-32, .cls-33, .cls-34, .cls-35, .cls-36, .cls-37, .cls-14, .cls-15, .cls-38, .cls-39, .cls-40, .cls-41, .cls-42, .cls-17 {
        stroke-miterlimit: 10;
      }

      .cls-25, .cls-10, .cls-26, .cls-27, .cls-11, .cls-28, .cls-29, .cls-30, .cls-31, .cls-32, .cls-33, .cls-34, .cls-35, .cls-38, .cls-39, .cls-40, .cls-41, .cls-42 {
        stroke-width: 3.41px;
      }

      .cls-25, .cls-26, .cls-27, .cls-11, .cls-38, .cls-39, .cls-40, .cls-41, .cls-42 {
        stroke: #59186b;
      }

      .cls-25, .cls-37, .cls-43 {
        fill: #59186b;
      }

      .cls-44, .cls-20 {
        font-size: 50.66px;
        letter-spacing: .1em;
      }

      .cls-44, .cls-20, .cls-45, .cls-46, .cls-21 {
        font-family: Poppins-Medium, Poppins;
        font-weight: 500;
      }

      .cls-44, .cls-47 {
        fill: #3d3e42;
      }

      .cls-10, .cls-26, .cls-27, .cls-11, .cls-28, .cls-29, .cls-30, .cls-31, .cls-32, .cls-33, .cls-12, .cls-13, .cls-35, .cls-38, .cls-39, .cls-40, .cls-41, .cls-42, .cls-16 {
        stroke-linecap: round;
      }

      .cls-10, .cls-28, .cls-29, .cls-30, .cls-31, .cls-32, .cls-33, .cls-34, .cls-35, .cls-36, .cls-37 {
        stroke: #ffd966;
      }

      .cls-26 {
        fill: url(#New_Pattern_Swatch_1-9);
      }

      .cls-27 {
        fill: url(#New_Pattern_Swatch_1-8);
      }

      .cls-2 {
        font-size: 96.47px;
      }

      .cls-3 {
        font-size: 91.3px;
      }

      .cls-48 {
        fill: #afa156;
      }

      .cls-5 {
        font-size: 124px;
      }

      .cls-49 {
        fill: #182544;
      }

      .cls-50 {
        fill: #1f1842;
      }

      .cls-51 {
        fill: #e7e0ec;
      }

      .cls-52 {
        fill: #f5ac9a;
      }

      .cls-45 {
        font-size: 24px;
        letter-spacing: .05em;
      }

      .cls-45, .cls-6, .cls-7, .cls-46, .cls-53 {
        fill: #474259;
      }

      .cls-54 {
        fill: #ff7655;
      }

      .cls-55 {
        fill: #a3ccae;
      }

      .cls-7 {
        font-size: 37.1px;
      }

      .cls-56 {
        fill: #ff5241;
      }

      .cls-57 {
        clip-path: url(#clippath-1);
      }

      .cls-58 {
        clip-path: url(#clippath-4);
      }

      .cls-59 {
        clip-path: url(#clippath-2);
      }

      .cls-60 {
        clip-path: url(#clippath-7);
      }

      .cls-61 {
        clip-path: url(#clippath-6);
      }

      .cls-62 {
        clip-path: url(#clippath-8);
      }

      .cls-63 {
        clip-path: url(#clippath-5);
      }

      .cls-46 {
        font-size: 39.41px;
        letter-spacing: .1em;
      }

      .cls-28 {
        fill: url(#New_Pattern_Swatch_1-3);
      }

      .cls-29 {
        fill: url(#New_Pattern_Swatch_1-2);
      }

      .cls-30 {
        fill: url(#New_Pattern_Swatch_1-4);
      }

      .cls-31 {
        fill: url(#New_Pattern_Swatch_1-7);
      }

      .cls-32 {
        fill: url(#New_Pattern_Swatch_1-6);
      }

      .cls-33 {
        fill: url(#New_Pattern_Swatch_1-5);
      }

      .cls-12 {
        stroke: #511f35;
      }

      .cls-12, .cls-13, .cls-16 {
        stroke-linejoin: round;
        stroke-width: 3px;
      }

      .cls-64 {
        letter-spacing: 0em;
      }

      .cls-65 {
        letter-spacing: 0em;
      }

      .cls-66 {
        fill: #fff;
      }

      .cls-67 {
        letter-spacing: 0em;
      }

      .cls-68 {
        fill: #fbe4c7;
      }

      .cls-69 {
        letter-spacing: 0em;
      }

      .cls-70 {
        letter-spacing: 0em;
      }

      .cls-71 {
        fill: #fff6ea;
      }

      .cls-72 {
        fill: #e6dce5;
      }

      .cls-34, .cls-36, .cls-73 {
        fill: #ffd966;
      }

      .cls-13 {
        stroke: #fff;
      }

      .cls-21 {
        font-size: 37.3px;
        letter-spacing: .1em;
      }

      .cls-74 {
        letter-spacing: 0em;
      }

      .cls-35 {
        fill: url(#New_Pattern_Swatch_1);
      }

      .cls-75 {
        letter-spacing: 0em;
      }

      .cls-76 {
        letter-spacing: 0em;
      }

      .cls-77 {
        fill: #e3ecff;
      }

      .cls-78 {
        opacity: .75;
      }

      .cls-79 {
        fill: #8cba7f;
      }

      .cls-80, .cls-81 {
        fill: #f6f8ff;
      }

      .cls-82 {
        fill: #ff8c68;
      }

      .cls-14 {
        stroke: #1f1842;
        stroke-width: 2px;
      }

      .cls-81 {
        opacity: .5;
      }

      .cls-83 {
        letter-spacing: -.02em;
      }

      .cls-84 {
        letter-spacing: -.02em;
      }

      .cls-85 {
        letter-spacing: -.02em;
      }

      .cls-86 {
        letter-spacing: -.05em;
      }

      .cls-87 {
        letter-spacing: -.05em;
      }

      .cls-15, .cls-17 {
        stroke: #c2d5ef;
        stroke-width: 4px;
      }

      .cls-38 {
        fill: url(#New_Pattern_Swatch_1-14);
      }

      .cls-39 {
        fill: url(#New_Pattern_Swatch_1-12);
      }

      .cls-40 {
        fill: url(#New_Pattern_Swatch_1-10);
      }

      .cls-41 {
        fill: url(#New_Pattern_Swatch_1-13);
      }

      .cls-42 {
        fill: url(#New_Pattern_Swatch_1-11);
      }

      .cls-88 {
        letter-spacing: 0em;
      }

      .cls-89 {
        letter-spacing: 0em;
      }

      .cls-90 {
        letter-spacing: -.01em;
      }

      .cls-91 {
        letter-spacing: -.01em;
      }

      .cls-92 {
        letter-spacing: 0em;
      }

      .cls-93 {
        letter-spacing: 0em;
      }

      .cls-94 {
        letter-spacing: 0em;
      }

      .cls-95 {
        letter-spacing: 0em;
      }

      .cls-96 {
        letter-spacing: 0em;
      }

      .cls-97 {
        letter-spacing: 0em;
      }

      .cls-98 {
        letter-spacing: 0em;
      }

      .cls-99 {
        letter-spacing: 0em;
      }

      .cls-100 {
        letter-spacing: 0em;
      }

      .cls-101 {
        letter-spacing: 0em;
      }

      .cls-102 {
        letter-spacing: 0em;
      }

      .cls-103 {
        letter-spacing: 0em;
      }

      .cls-104 {
        letter-spacing: 0em;
      }

      .cls-16 {
        stroke: #474259;
      }

      .cls-105 {
        letter-spacing: .02em;
      }

      .cls-106 {
        letter-spacing: .02em;
      }

      .cls-107 {
        letter-spacing: .01em;
      }

      .cls-108 {
        letter-spacing: .02em;
      }

      .cls-109 {
        letter-spacing: .02em;
      }

      .cls-110 {
        letter-spacing: .01em;
      }

      .cls-111 {
        letter-spacing: .01em;
      }

      .cls-112 {
        letter-spacing: .01em;
      }

      .cls-113 {
        fill: #faf1c9;
      }

      .cls-17 {
        stroke-dasharray: 8.06 8.06;
      }

      .cls-114 {
        letter-spacing: 0em;
      }

      .cls-115 {
        letter-spacing: .01em;
      }

      .cls-116 {
        letter-spacing: .01em;
      }

      .cls-117 {
        letter-spacing: 0em;
      }

      .cls-118 {
        letter-spacing: 0em;
      }

      .cls-119 {
        letter-spacing: .01em;
      }

      .cls-120 {
        letter-spacing: 0em;
      }

      .cls-121 {
        letter-spacing: 0em;
      }

      .cls-122 {
        letter-spacing: 0em;
      }

      .cls-123 {
        letter-spacing: 0em;
      }

      .cls-124 {
        letter-spacing: 0em;
      }

      .cls-125 {
        letter-spacing: 0em;
      }

      .cls-126 {
        letter-spacing: 0em;
      }

      .cls-127 {
        letter-spacing: 0em;
      }
    </style>
    <pattern id="New_Pattern_Swatch_1" data-name="New Pattern Swatch 1" x="0" y="0" width="10" height="10" patternTransform="translate(2248.38 594.2)" patternUnits="userSpaceOnUse" viewBox="0 0 10 10">
      <g>
        <rect class="cls-9" width="10" height="10"/>
        <circle class="cls-73" cx="5" cy="5" r="2.35"/>
      </g>
    </pattern>
    <pattern id="New_Pattern_Swatch_1-2" data-name="New Pattern Swatch 1" patternTransform="translate(661.97 -1072.57) scale(.79)" xlink:href="#New_Pattern_Swatch_1"/>
    <pattern id="New_Pattern_Swatch_1-3" data-name="New Pattern Swatch 1" patternTransform="translate(661.97 -1072.57) scale(.79)" xlink:href="#New_Pattern_Swatch_1"/>
    <pattern id="New_Pattern_Swatch_1-4" data-name="New Pattern Swatch 1" patternTransform="translate(661.97 -1072.57) scale(.79)" xlink:href="#New_Pattern_Swatch_1"/>
    <pattern id="New_Pattern_Swatch_1-5" data-name="New Pattern Swatch 1" patternTransform="translate(656.83 -1070.82) scale(.79)" xlink:href="#New_Pattern_Swatch_1"/>
    <pattern id="New_Pattern_Swatch_1-6" data-name="New Pattern Swatch 1" patternTransform="translate(654.14 -1075.94) scale(.79)" xlink:href="#New_Pattern_Swatch_1"/>
    <pattern id="New_Pattern_Swatch_1-7" data-name="New Pattern Swatch 1" patternTransform="translate(652.9 -1081.78) scale(.79)" xlink:href="#New_Pattern_Swatch_1"/>
    <pattern id="New_Pattern_Swatch_1-8" data-name="New Pattern Swatch 1" patternTransform="translate(656.67 -1074.49) scale(.79)" xlink:href="#New_Pattern_Swatch_1"/>
    <pattern id="New_Pattern_Swatch_1-9" data-name="New Pattern Swatch 1" patternTransform="translate(656.67 -1074.49) scale(.79)" xlink:href="#New_Pattern_Swatch_1"/>
    <pattern id="New_Pattern_Swatch_1-10" data-name="New Pattern Swatch 1" patternTransform="translate(656.67 -1074.49) scale(.79)" xlink:href="#New_Pattern_Swatch_1"/>
    <pattern id="New_Pattern_Swatch_1-11" data-name="New Pattern Swatch 1" patternTransform="translate(656.67 -1074.49) scale(.79)" xlink:href="#New_Pattern_Swatch_1"/>
    <pattern id="New_Pattern_Swatch_1-12" data-name="New Pattern Swatch 1" patternTransform="translate(651.53 -1072.75) scale(.79)" xlink:href="#New_Pattern_Swatch_1"/>
    <pattern id="New_Pattern_Swatch_1-13" data-name="New Pattern Swatch 1" patternTransform="translate(648.84 -1077.86) scale(.79)" xlink:href="#New_Pattern_Swatch_1"/>
    <pattern id="New_Pattern_Swatch_1-14" data-name="New Pattern Swatch 1" patternTransform="translate(647.6 -1083.71) scale(.79)" xlink:href="#New_Pattern_Swatch_1"/>
    <clipPath id="clippath-1">
      <rect class="cls-9" x="5498.77" y="2146.78" width="1081" height="1080"/>
    </clipPath>
    <clipPath id="clippath-2">
      <path class="cls-9" d="M6089.7,3011.38s-7.5-36.69,28.51-70.64l272.81,105.32s11.97,40.02-36.91,71.23l-264.4-105.91Z"/>
    </clipPath>
    <clipPath id="clippath-4">
      <rect class="cls-9" x="6705.12" y="2194.13" width="1081" height="1080"/>
    </clipPath>
    <clipPath id="clippath-5">
      <rect class="cls-9" x="3674.38" y="602.17" width="1366" height="1194.7"/>
    </clipPath>
    <clipPath id="clippath-6">
      <path class="cls-9" d="M7296.05,3058.74s-7.5-36.69,28.51-70.64l272.81,105.32s11.97,40.02-36.91,71.23l-264.4-105.91Z"/>
    </clipPath>
    <clipPath id="clippath-7">
      <path class="cls-9" d="M4262.9,1513.52s-5.84-28.55,22.18-54.96l212.24,81.94s9.31,31.14-28.72,55.41l-205.7-82.4Z"/>
    </clipPath>
    <clipPath id="clippath-8">
      <path class="cls-9" d="M4967.7,2869.3s-5.53-27.02,20.99-52.01l200.86,77.55s8.81,29.47-27.18,52.44l-194.67-77.98Z"/>
    </clipPath>
  </defs>
  <rect class="cls-77" x="3674.38" y="602.17" width="1366" height="1194.7"/>
  <g class="cls-78">
    <g>
      <line class="cls-15" x1="3668.97" y1="1027.31" x2="3668.97" y2="1031.31"/>
      <line class="cls-17" x1="3668.97" y1="1039.37" x2="3668.97" y2="1792.87"/>
      <line class="cls-15" x1="3668.97" y1="1796.9" x2="3668.97" y2="1800.9"/>
    </g>
    <g>
      <line class="cls-15" x1="3807.7" y1="1027.31" x2="3807.7" y2="1031.31"/>
      <line class="cls-17" x1="3807.7" y1="1039.37" x2="3807.7" y2="1792.87"/>
      <line class="cls-15" x1="3807.7" y1="1796.9" x2="3807.7" y2="1800.9"/>
    </g>
    <g>
      <line class="cls-15" x1="3738.34" y1="1027.31" x2="3738.34" y2="1031.31"/>
      <line class="cls-17" x1="3738.34" y1="1039.37" x2="3738.34" y2="1792.87"/>
      <line class="cls-15" x1="3738.34" y1="1796.9" x2="3738.34" y2="1800.9"/>
    </g>
    <g>
      <line class="cls-15" x1="3877.06" y1="1027.31" x2="3877.06" y2="1031.31"/>
      <line class="cls-17" x1="3877.06" y1="1039.37" x2="3877.06" y2="1792.87"/>
      <line class="cls-15" x1="3877.06" y1="1796.9" x2="3877.06" y2="1800.9"/>
    </g>
    <g>
      <line class="cls-15" x1="3946.42" y1="1027.31" x2="3946.42" y2="1031.31"/>
      <line class="cls-17" x1="3946.42" y1="1039.37" x2="3946.42" y2="1792.87"/>
      <line class="cls-15" x1="3946.42" y1="1796.9" x2="3946.42" y2="1800.9"/>
    </g>
    <g>
      <line class="cls-15" x1="4015.78" y1="1027.31" x2="4015.78" y2="1031.31"/>
      <line class="cls-17" x1="4015.78" y1="1039.37" x2="4015.78" y2="1792.87"/>
      <line class="cls-15" x1="4015.78" y1="1796.9" x2="4015.78" y2="1800.9"/>
    </g>
    <g>
      <line class="cls-15" x1="4154.51" y1="1027.31" x2="4154.51" y2="1031.31"/>
      <line class="cls-17" x1="4154.51" y1="1039.37" x2="4154.51" y2="1792.87"/>
      <line class="cls-15" x1="4154.51" y1="1796.9" x2="4154.51" y2="1800.9"/>
    </g>
    <g>
      <line class="cls-15" x1="4085.15" y1="1027.31" x2="4085.15" y2="1031.31"/>
      <line class="cls-17" x1="4085.15" y1="1039.37" x2="4085.15" y2="1792.87"/>
      <line class="cls-15" x1="4085.15" y1="1796.9" x2="4085.15" y2="1800.9"/>
    </g>
    <g>
      <line class="cls-15" x1="4298.53" y1="1171.33" x2="4294.53" y2="1171.33"/>
      <line class="cls-17" x1="4286.48" y1="1171.33" x2="3532.98" y2="1171.33"/>
      <line class="cls-15" x1="3528.95" y1="1171.33" x2="3524.95" y2="1171.33"/>
    </g>
    <g>
      <line class="cls-15" x1="4298.53" y1="1310.06" x2="4294.53" y2="1310.06"/>
      <line class="cls-17" x1="4286.48" y1="1310.06" x2="3532.98" y2="1310.06"/>
      <line class="cls-15" x1="3528.95" y1="1310.06" x2="3524.95" y2="1310.06"/>
    </g>
    <g>
      <line class="cls-15" x1="4298.53" y1="1240.7" x2="4294.53" y2="1240.7"/>
      <line class="cls-17" x1="4286.48" y1="1240.7" x2="3532.98" y2="1240.7"/>
      <line class="cls-15" x1="3528.95" y1="1240.7" x2="3524.95" y2="1240.7"/>
    </g>
    <g>
      <line class="cls-15" x1="4298.53" y1="1379.42" x2="4294.53" y2="1379.42"/>
      <line class="cls-17" x1="4286.48" y1="1379.42" x2="3532.98" y2="1379.42"/>
      <line class="cls-15" x1="3528.95" y1="1379.42" x2="3524.95" y2="1379.42"/>
    </g>
    <g>
      <line class="cls-15" x1="4298.53" y1="1448.78" x2="4294.53" y2="1448.78"/>
      <line class="cls-17" x1="4286.48" y1="1448.78" x2="3532.98" y2="1448.78"/>
      <line class="cls-15" x1="3528.95" y1="1448.78" x2="3524.95" y2="1448.78"/>
    </g>
    <g>
      <line class="cls-15" x1="4298.53" y1="1518.15" x2="4294.53" y2="1518.15"/>
      <line class="cls-17" x1="4286.48" y1="1518.15" x2="3532.98" y2="1518.14"/>
      <line class="cls-15" x1="3528.95" y1="1518.14" x2="3524.95" y2="1518.14"/>
    </g>
    <g>
      <line class="cls-15" x1="4298.53" y1="1656.87" x2="4294.53" y2="1656.87"/>
      <line class="cls-17" x1="4286.48" y1="1656.87" x2="3532.98" y2="1656.87"/>
      <line class="cls-15" x1="3528.95" y1="1656.87" x2="3524.95" y2="1656.87"/>
    </g>
    <g>
      <line class="cls-15" x1="4298.53" y1="1587.51" x2="4294.53" y2="1587.51"/>
      <line class="cls-17" x1="4286.48" y1="1587.51" x2="3532.98" y2="1587.51"/>
      <line class="cls-15" x1="3528.95" y1="1587.51" x2="3524.95" y2="1587.51"/>
    </g>
  </g>
  <circle class="cls-52" cx="4670.87" cy="1073.3" r="273.14"/>
  <rect class="cls-80" x="2248.38" y="602.17" width="1366" height="354.79"/>
  <g>
    <path class="cls-82" d="M2590.11,855.71c1.57-1.09,6.55-4.61,9.02-6.49,11.65-8.85,33.73,1.96,45.49-7.18,10.19-7.93,36.72-36.31,36.72-36.31,1.8-1.9-7.74-12.25-10.86-9.16-7.2,7.13-28.79,28.53-28.79,28.53-2.7,4.17-10.31-4.44-10.41-6.5-.08-1.72,3.41-5.02,4.76-6.42,7.25-7.6,18.49-18.26,25.87-25.42,2.44-2.37-7.5-12.44-10.28-9.91,0,0-21.96,21.14-31.86,30.28-2.37,2.4-10-6.77-8.35-8.76.5-.61,2.04-2.3,2.72-3,4.74-4.85,26.76-26.91,27.17-27.32,3.01-3.02-7.52-11.99-10.37-9.15-7.77,7.77-32.27,31.69-32.27,31.69-12.46,13.13.76,35.19-10.11,48.81-1.94,2.44-4.97,4.19-7.28,6.75-1.38,1.53,6.98,10.85,8.82,9.56Z"/>
    <path class="cls-82" d="M2595.61,776.87c1.11-.96,4.41-4.25,5.33-5.34,3.57-4.24-.29-5.52-1.95-9.82-5.78-14.94,5.77-31.08,21.85-29.66,12.63,1.12,19.42,13.05,28.14,20.72.99.81,2.45.81,3.44,0,9.88-9,17.61-22.44,32.97-20.63,3.65.43,8.76,2.59,11.48,5.09,7.43,6.8,9.38,18.46,4.35,27.23-2.79,4.87-20.2,20.42-20.47,22.25-.15.99.08,1.44.55,2.24.23.39,6.06,6.22,6.46,6.45,1.34.77,2.74.89,4,0,8.99-10.06,21.66-18.22,25.38-31.88,8.44-30.95-22.96-56.4-51.56-41.93-5.75,2.91-9.92,7.51-14.33,12.08-4.17-3.05-6.8-5.97-11.89-10-28.35-22.43-67.5,10.89-53.43,44.35,1.31,3.11,5.62,12.39,9.69,8.85Z"/>
  </g>
  <text class="cls-6" transform="translate(2746.36 819.17)"><tspan class="cls-96" x="0" y="0">R</tspan><tspan class="cls-103" x="64.6" y="0">ez</tspan><tspan x="165.4" y="0">ep</tspan><tspan class="cls-117" x="272.7" y="0">t</tspan><tspan class="cls-98" x="311.4" y="0">w</tspan><tspan class="cls-83" x="390.2" y="0">e</tspan><tspan class="cls-90" x="439" y="0">l</tspan><tspan x="469.69" y="0">t </tspan></text>
  <g>
    <g>
      <path class="cls-35" d="M4137.62,78.15l-.6,1.1c-4.58,8.33-15.06,11.37-23.39,6.79l-3.96-2.18,2.79,1.53-14.65,26.63,14.13,23.59,29.43-50.98-3.74-6.49Z"/>
      <path class="cls-29" d="M4080.81,105.53l2.09-1.25-13.48-22.51c-16.42,8.24-36.05,4.8-48.71-7.8l-6.16,10.66,31.7,54.91h29.15l12.34-22.44-6.93-11.58Z"/>
      <polygon class="cls-28" points="4082.67 139.54 4101.19 139.54 4091.53 123.42 4082.67 139.54"/>
      <path class="cls-30" d="M4074.89,78.49l13.48,22.51,2.08-1.25,3.56,5.95,12.86-23.38-1.17-.64c-8.33-4.58-11.37-15.06-6.79-23.39l13.29-24.16-2.55-4.41h-19.37c6.34,17.64.24,37.73-15.4,48.77Z"/>
      <path class="cls-10" d="M4090.29,29.72c-.92-2.55-2.09-5.05-3.53-7.46-11.99-20.03-37.95-26.54-57.98-14.54-20.03,11.99-26.54,37.95-14.54,57.98,1.85,3.08,4.03,5.85,6.47,8.27,12.66,12.59,32.28,16.04,48.71,7.8l-.15-.24,5.47-3.28.15.24c15.65-11.03,21.75-31.12,15.4-48.77Z"/>
      <path class="cls-34" d="M4074.89,78.49c-.86.61-1.75,1.2-2.67,1.75-.92.55-1.86,1.05-2.81,1.53l13.48,22.51,5.47-3.28-13.48-22.51Z"/>
      <path class="cls-37" d="M4074.89,78.49l-.15-.24-5.47,3.28.15.24c.95-.47,1.88-.97,2.81-1.53.92-.55,1.81-1.14,2.67-1.75Z"/>
      <rect class="cls-37" x="4082.71" y="102.57" width="6.38" height="1.02" transform="translate(527.6 2113.97) rotate(-30.92)"/>
      <path class="cls-10" d="M4113.98,30.91l-1.77,3.22-13.29,24.16c-4.58,8.33-1.54,18.81,6.79,23.39l1.17.64,2.79,1.53,3.96,2.18c8.33,4.58,18.81,1.54,23.39-6.79l.6-1.1,14.45-26.28-38.1-20.96Z"/>
      <polygon class="cls-34" points="4094.02 105.7 4097.81 112.02 4112.46 85.39 4109.67 83.85 4106.88 82.32 4094.02 105.7"/>
      <polygon class="cls-34" points="4087.75 117.1 4075.4 139.54 4082.67 139.54 4091.53 123.42 4087.75 117.1"/>
      <polygon class="cls-37" points="4106.88 82.32 4109.67 83.85 4106.88 82.32 4106.88 82.32"/>
      <path class="cls-10" d="M4081.08,33.02c-.7-1.96-1.6-3.88-2.71-5.73-9.22-15.39-29.17-20.4-44.56-11.18-15.39,9.22-20.4,29.17-11.18,44.56,1.42,2.37,3.1,4.49,4.97,6.36,9.73,9.68,24.81,12.33,37.44,5.99l-.11-.19,4.21-2.52.11.19c12.03-8.48,16.71-23.92,11.84-37.48Z"/>
      <path class="cls-36" d="M4042.67,23.6c9.4-5.63,20.31-6.52,29.97-3.4-10.32-9.62-26.13-11.71-38.83-4.1-15.39,9.22-20.4,29.17-11.18,44.56,1.19,1.99,2.57,3.79,4.08,5.42-5.12-15.8,1.1-33.59,15.95-42.49Z"/>
    </g>
    <line class="cls-33" x1="4139.04" y1="53.61" x2="4124.58" y2="79.89"/>
    <line class="cls-32" x1="4128.44" y1="48.5" x2="4113.99" y2="74.77"/>
    <line class="cls-31" x1="4119.31" y1="42.65" x2="4104.86" y2="68.93"/>
  </g>
  <text class="cls-4" transform="translate(4177.49 119.87)"><tspan class="cls-96" x="0" y="0">R</tspan><tspan class="cls-103" x="64.6" y="0">ez</tspan><tspan x="165.4" y="0">ep</tspan><tspan class="cls-117" x="272.7" y="0">t</tspan><tspan class="cls-98" x="311.4" y="0">w</tspan><tspan class="cls-83" x="390.2" y="0">e</tspan><tspan class="cls-90" x="439" y="0">l</tspan><tspan x="469.69" y="0">t</tspan></text>
  <image width="1162" height="1438" transform="translate(1498.11 735.4) scale(.5)" xlink:href="../../../design/Inspiration/Bildschirmfoto 2025-10-02 um 09.03.51.png"/>
  <image width="1190" height="1440" transform="translate(831.7 750.73) scale(.5)" xlink:href="../../../design/Inspiration/Bildschirmfoto 2025-10-02 um 09.04.06.png"/>
  <image width="1184" height="1456" transform="translate(0 726.4) scale(.5)" xlink:href="../../../design/Inspiration/Bildschirmfoto 2025-10-02 um 09.04.15.png"/>
  <g>
    <g>
      <path class="cls-27" d="M4108.62,455.44l-.6,1.1c-4.58,8.33-15.06,11.37-23.39,6.79l-3.96-2.18,2.79,1.53-14.65,26.63,14.13,23.59,29.43-50.98-3.74-6.49Z"/>
      <path class="cls-26" d="M4051.81,482.82l2.09-1.25-13.48-22.51c-16.42,8.24-36.05,4.8-48.71-7.8l-6.16,10.66,31.7,54.91h29.15l12.34-22.44-6.93-11.58Z"/>
      <polygon class="cls-40" points="4053.66 516.83 4072.19 516.83 4062.53 500.71 4053.66 516.83"/>
      <path class="cls-42" d="M4045.89,455.78l13.48,22.51,2.08-1.25,3.56,5.95,12.86-23.38-1.17-.64c-8.33-4.58-11.37-15.06-6.79-23.39l13.29-24.16-2.55-4.41h-19.37c6.34,17.64.24,37.73-15.4,48.77Z"/>
      <path class="cls-11" d="M4061.29,407.01c-.92-2.55-2.09-5.05-3.53-7.46-11.99-20.03-37.95-26.54-57.98-14.54-20.03,11.99-26.54,37.95-14.54,57.98,1.85,3.08,4.03,5.85,6.47,8.27,12.66,12.59,32.28,16.04,48.71,7.8l-.15-.24,5.47-3.28.15.24c15.65-11.03,21.75-31.12,15.4-48.77Z"/>
      <path class="cls-25" d="M4045.89,455.78c-.86.61-1.75,1.2-2.67,1.75-.92.55-1.86,1.05-2.81,1.53l13.48,22.51,5.47-3.28-13.48-22.51Z"/>
      <path class="cls-43" d="M4045.89,455.78l-.15-.24-5.47,3.28.15.24c.95-.47,1.88-.97,2.81-1.53.92-.55,1.81-1.14,2.67-1.75Z"/>
      <rect class="cls-43" x="4053.7" y="479.86" width="6.38" height="1.02" transform="translate(329.63 2152.68) rotate(-30.92)"/>
      <path class="cls-11" d="M4084.98,408.2l-1.77,3.22-13.29,24.16c-4.58,8.33-1.54,18.81,6.79,23.39l1.17.64,2.79,1.53,3.96,2.18c8.33,4.58,18.81,1.54,23.39-6.79l.6-1.1,14.45-26.28-38.1-20.96Z"/>
      <polygon class="cls-25" points="4065.02 482.99 4068.81 489.31 4083.45 462.68 4080.67 461.14 4077.88 459.61 4065.02 482.99"/>
      <polygon class="cls-25" points="4058.75 494.39 4046.4 516.83 4053.66 516.83 4062.53 500.71 4058.75 494.39"/>
      <polygon class="cls-43" points="4077.88 459.61 4080.67 461.14 4077.88 459.61 4077.88 459.61"/>
      <path class="cls-11" d="M4052.08,410.31c-.7-1.96-1.6-3.88-2.71-5.73-9.22-15.39-29.17-20.4-44.56-11.18-15.39,9.22-20.4,29.17-11.18,44.56,1.42,2.37,3.1,4.49,4.97,6.36,9.73,9.68,24.81,12.33,37.44,5.99l-.11-.19,4.21-2.52.11.19c12.03-8.48,16.71-23.92,11.84-37.48Z"/>
      <path class="cls-43" d="M4013.66,400.89c9.4-5.63,20.31-6.52,29.97-3.4-10.32-9.62-26.13-11.71-38.83-4.1-15.39,9.22-20.4,29.17-11.18,44.56,1.19,1.99,2.57,3.79,4.08,5.42-5.12-15.8,1.1-33.59,15.95-42.49Z"/>
    </g>
    <line class="cls-39" x1="4110.04" y1="430.9" x2="4095.58" y2="457.18"/>
    <line class="cls-41" x1="4099.44" y1="425.79" x2="4084.99" y2="452.06"/>
    <line class="cls-38" x1="4090.31" y1="419.94" x2="4075.85" y2="446.22"/>
  </g>
  <rect class="cls-71" x="5498.77" y="2146.78" width="1081" height="1080"/>
  <text class="cls-5" transform="translate(5931.18 2401.92)"><tspan class="cls-73"><tspan class="cls-116" x="0" y="0">E</tspan><tspan class="cls-108" x="77.5" y="0">x</tspan><tspan class="cls-92" x="146.81" y="0">p</tspan><tspan class="cls-65" x="216.13" y="0">l</tspan><tspan class="cls-116" x="255.81" y="0">o</tspan><tspan class="cls-106" x="325.49" y="0">r</tspan><tspan class="cls-116" x="384.27" y="0">i</tspan><tspan class="cls-127" x="424.2" y="0">n</tspan><tspan class="cls-120" x="500.83" y="0">g</tspan></tspan><tspan class="cls-82"><tspan class="cls-95" x="-46" y="120">r</tspan><tspan class="cls-116" x="8.93" y="120">est</tspan><tspan class="cls-70" x="180.91" y="120">a</tspan><tspan class="cls-107" x="247.75" y="120">u</tspan><tspan class="cls-101" x="320.53" y="120">r</tspan><tspan class="cls-120" x="376.09" y="120">a</tspan><tspan class="cls-74" x="443.91" y="120">n</tspan><tspan class="cls-120" x="519.68" y="120">t</tspan></tspan><tspan class="cls-47"><tspan class="cls-120" x="81.46" y="240">ca</tspan><tspan class="cls-95" x="208.19" y="240">r</tspan><tspan class="cls-123" x="263.12" y="240">e</tspan><tspan class="cls-116" x="326.73" y="240">er</tspan><tspan class="cls-87" x="447.63" y="240">s</tspan><tspan class="cls-120" x="500.46" y="240">?</tspan></tspan></text>
  <circle class="cls-56" cx="6406.26" cy="2208.14" r="6.27"/>
  <path class="cls-56" d="M6180.27,2969.52c0,3.46,2.81,6.27,6.27,6.27s6.27-2.81,6.27-6.27-2.81-6.27-6.27-6.27-6.27,2.81-6.27,6.27Z"/>
  <text class="cls-44" transform="translate(6167.81 2720.58)"><tspan x="0" y="0">APPLY NOW</tspan></text>
  <g class="cls-57">
    <path class="cls-113" d="M5751.35,2222.82c-6.89,42.7-15.23,88.36-45.65,119.11-31.34,31.68-79.03,40.24-116.05,65.06-34.11,22.87-59.11,59.53-97.32,74.59-54.5,21.49-119.51-11.33-148.88-62.03-29.37-50.69-29.42-113.56-17.54-170.93,21.37-103.18,79.56-198.35,161.68-264.38,57.26-46.05,203.95-134.66,279.11-87.49,45.63,28.64,22.47,91.59,15.59,134.25-10.32,63.94-20.63,127.87-30.95,191.81Z"/>
    <path class="cls-113" d="M6227.15,3181.09c15.59-29.25,44.6-48.59,73.12-65.48,28.52-16.89,58.58-33.3,78.81-59.56,16.68-21.64,25.56-48.68,43.38-69.38,31.17-36.21,87.33-45.91,131.18-26.93,43.85,18.98,74.33,63.06,82.21,110.19,7.89,47.13-5.18,96.35-30.51,136.87-36.13,57.79-97.55,99.13-164.7,110.84-69.91,12.19-272.57-25.73-213.51-136.55Z"/>
    <path class="cls-113" d="M6250.05,2195.81c19.79,28.14,57.79,39.4,91.82,34.3,34.48-5.18,69.46-24.7,102.21-12.72,25.07,9.17,40.24,34.15,61.01,50.92,28.86,23.29,71,29.69,104.66,14.12,33.66-15.58,56.32-53.25,52.33-90.12-4.86-44.9-44.12-78.36-84.63-98.3-67.68-33.31-146.99-41.11-220.28-24.08-53.71,12.48-159.18,51.87-107.11,125.89Z"/>
    <path class="cls-113" d="M5539.97,2974.49c50.47.42,98.66,36.29,113.54,84.52,3.57,11.56,5.47,23.88,11.77,34.21,21.05,34.54,71.73,26.48,112.15,28.06,37.41,1.46,74.88,15.96,100.77,43,25.88,27.04,38.82,67.05,29.91,103.41-9.91,40.47-44.97,71.42-84.2,85.45-39.23,14.03-82.22,13.36-123.57,8.29-77.59-9.52-156.12-35.78-211.47-90.97-77.13-76.9-109.45-297.29,51.1-295.97Z"/>
  </g>
  <g>
    <g>
      <path class="cls-47" d="M5559.9,2724.01l-16.95,152.99s142.23,168.19,424.24,166.15l87.76-123.64-495.05-195.51Z"/>
      <polygon class="cls-47" points="6018.28 2962.11 6094.76 2992.48 6111.48 2955.46 6031.02 2925.62 6018.28 2962.11"/>
      <path class="cls-66" d="M6054.96,2919.52c-2.65,6.73-9.61,11.47-20.13,14.31-42.27,11.42-142.07-7.71-251.53-50.93-110.81-43.75-197.51-98.79-219.27-136.04-5.11-8.71-6.64-16.45-4.12-22.84,13.33-33.74,134.96-17.35,271.67,36.64,136.69,53.98,236.72,125.11,223.39,158.87Z"/>
      <path class="cls-73" d="M6034.83,2933.82c-42.27,11.42-142.07-7.71-251.53-50.93-110.81-43.75-197.51-98.79-219.27-136.04,42.27-11.42,142.06,7.69,251.53,50.93,110.8,43.76,197.5,98.78,219.27,136.04Z"/>
      <path class="cls-12" d="M5594.6,2779.96s168.69-27.56,413.71,157.07"/>
      <g>
        <path class="cls-18" d="M6089.7,3011.38s-7.5-36.69,28.51-70.64l272.81,105.32s11.97,40.02-36.91,71.23l-264.4-105.91Z"/>
        <g class="cls-59">
          <path class="cls-12" d="M6068.95,3034.5c16.66,2.88,33.63-5.23,45.88-16.88,12.25-11.65,20.76-26.58,29.8-40.86,9.04-14.29,19.16-28.51,33.43-37.58,14.27-9.07,33.65-11.94,47.97-2.97,14.33,8.98,19.4,31.68,7.26,43.44-6.33,6.13-15.44,8.21-24.07,9.97-8.63,1.77-17.75,3.72-24.22,9.69-6.48,5.98-8.74,17.44-2.24,23.4,6.79,6.23,17.72,2.81,25.69-1.83,7.96-4.63,16.81-10.42,25.64-7.8,14.07,4.17,16.47,26.14,30.58,30.18,11.11,3.18,21.46-7.04,27.07-17.15s10.41-22.1,21.03-26.66c13.7-5.88,30.54,5.95,32.75,20.69,2.22,14.74-7.4,29.43-20.35,36.82-12.94,7.39-28.51,8.68-43.39,7.83-14.88-.85-29.64-3.64-44.54-3.74-19.75-.13-43.01,7.81-47.76,26.98-4.62,18.66,12.44,37.07,31.21,41.21,18.77,4.14,38.13-1.88,56.4-7.84,15.38-5.01,31.33-10.36,42.96-21.6,8.05-7.79,13.84-18.23,23.66-23.63,15.16-8.33,35.07-1.19,46.61,11.69,11.54,12.88,16.7,30.1,21.53,46.71,9.17-9.69,18.35-19.38,27.52-29.07"/>
        </g>
      </g>
      <path class="cls-13" d="M5562.13,2871.11s195.65,168.18,394.85,153.47"/>
    </g>
    <g>
      <path class="cls-66" d="M5737.94,2800.19c-3.04,1.14-6.29,1.52-9.52.91-5.71-1.1-11.34-5.01-16.81-3.11-7.75,2.68-7.64,13.72-12.4,20.39-4.18,5.85-12.93,7.84-19.22,4.37-6.28-3.48-9.27-11.94-6.54-18.6,1.99-4.82,6.31-8.21,10.07-11.84,3.74-3.63,7.28-8.28,6.91-13.49-.24-3.17-2.3-5.78-5.29-6.81-4.04-1.38-6.67-2.51-8.25-5.83-.33-.68-.62-1.47-.86-2.36-1.33-4.92-.98-10.5,1.64-14.93,4.14-6.99,12.32-10.91,20.42-11.49,8.09-.59,16.14,1.75,23.6,4.94,8.97,3.84,17.59,9.11,23.53,16.84,5.93,7.73,8.83,18.25,5.76,27.49-2.05,6.14-7.08,11.3-13.03,13.54Z"/>
      <path class="cls-47" d="M5737.94,2800.19c-3.61-2.79-4.02-8.59-3.92-13.42.08-5.41-.75-12.07-5.79-14-5.81-2.2-13.01,3.93-18.17.43-3.11-2.13-3.38-6.51-4.75-10.02-2.66-6.83-10.88-10.94-17.94-8.96-4.01,1.14-7.33,4.14-9.19,7.84-.63,1.25-.96,2.7-1.3,4.11-.33-.68-.62-1.47-.86-2.36-1.33-4.92-.98-10.5,1.64-14.93,4.14-6.99,12.32-10.91,20.42-11.49,8.09-.59,16.14,1.75,23.6,4.94,8.97,3.84,17.59,9.11,23.53,16.84,5.93,7.73,8.83,18.25,5.76,27.49-2.05,6.14-7.08,11.3-13.03,13.54Z"/>
    </g>
    <g>
      <path class="cls-66" d="M5939.74,2659.96c-1.87,3.12-4.47,5.73-7.72,7.44-5.78,3.01-13.46,3.51-16.93,8.99-4.94,7.76,2.86,17.38,3.34,26.56.41,8.05-5.89,15.9-13.84,17.24-7.95,1.32-16.47-4.03-18.72-11.77-1.62-5.62-.19-11.61.59-17.42.76-5.8.62-12.36-3.35-16.67-2.42-2.61-6.05-3.47-9.4-2.29-4.51,1.6-7.61,2.44-11.32.64-.77-.36-1.56-.86-2.4-1.47-4.6-3.39-8.19-8.54-8.97-14.26-1.24-9.03,3.21-18.18,9.92-24.34,6.69-6.16,15.4-9.72,24.17-12.13,10.56-2.89,21.8-4.27,32.41-1.62,10.61,2.65,20.48,9.87,24.24,20.13,2.48,6.82,1.66,14.86-2,20.98Z"/>
      <path class="cls-47" d="M5939.74,2659.96c-5.11.07-9.52-4.74-12.81-9.05-3.7-4.81-9.08-10.07-14.85-8.26-6.64,2.12-8.69,12.53-15.65,13.05-4.22.3-7.51-3.36-11.16-5.49-7.1-4.14-17.19-2.02-22.01,4.64-2.73,3.79-3.55,8.75-2.6,13.3.32,1.54,1.04,3.04,1.72,4.52-.77-.36-1.56-.86-2.4-1.47-4.6-3.39-8.19-8.54-8.97-14.26-1.24-9.03,3.21-18.18,9.92-24.34,6.69-6.16,15.4-9.72,24.17-12.13,10.56-2.89,21.8-4.27,32.41-1.62,10.61,2.65,20.48,9.87,24.24,20.13,2.48,6.82,1.66,14.86-2,20.98Z"/>
    </g>
    <g>
      <path class="cls-54" d="M5658.41,2652.66c2.77-11.57,8.27-22.96,17.77-30.11,9.5-7.15,23.55-9.01,33.31-2.2,8.94,6.23,12.69,18.06,21.64,24.27,8.29,5.75,19.64,5.7,27.72,11.73,6,4.47,9.39,11.9,9.91,19.36.52,7.46-1.62,14.93-5.05,21.57-9.26,17.95-28.53,30.31-48.71,31.24-20.39.94-35.96-9.25-49.48-23.33-12.31-12.81-11.03-36.14-7.11-52.53Z"/>
      <path class="cls-82" d="M5663.31,2654.92c2.49-10.39,7.43-20.62,15.96-27.04,8.54-6.42,21.15-8.09,29.92-1.98,8.03,5.6,11.4,16.22,19.44,21.8,7.44,5.16,17.64,5.12,24.9,10.53,5.39,4.01,8.44,10.69,8.9,17.39.47,6.7-1.45,13.41-4.53,19.38-8.32,16.13-25.63,27.22-43.75,28.06-18.31.84-32.3-8.31-44.44-20.95-11.05-11.51-9.91-32.46-6.39-47.18Z"/>
      <g>
        <path class="cls-66" d="M5691.37,2649.17c1.92.02,3.31.51,4.57,1.11,1.23.63,2.27,1.44,3.13,2.4.86.96,1.55,2.08,2.04,3.37.46,1.32.78,2.76.58,4.67-1.93-.01-3.32-.5-4.58-1.1-1.23-.63-2.27-1.44-3.12-2.4-.86-.97-1.54-2.08-2.03-3.38-.45-1.33-.79-2.76-.59-4.67Z"/>
        <path class="cls-66" d="M5682.7,2666.17c1.53-1.15,2.94-1.6,4.31-1.89,1.36-.25,2.67-.23,3.94,0,1.27.24,2.49.71,3.67,1.44,1.17.77,2.3,1.72,3.3,3.36-1.54,1.16-2.94,1.62-4.31,1.9-1.36.25-2.67.23-3.94-.01-1.27-.25-2.49-.72-3.66-1.45-1.17-.78-2.3-1.71-3.3-3.35Z"/>
        <path class="cls-66" d="M5681.4,2683.72c.83-1.73,1.87-2.78,2.95-3.67,1.09-.85,2.26-1.44,3.5-1.81,1.24-.37,2.54-.52,3.92-.41,1.39.15,2.83.46,4.48,1.46-.83,1.74-1.86,2.79-2.95,3.68-1.09.85-2.26,1.44-3.5,1.8-1.24.37-2.54.51-3.92.4-1.39-.15-2.83-.46-4.48-1.45Z"/>
      </g>
      <g>
        <path class="cls-66" d="M5735.63,2672.29c-1.16-1.53-2.38-2.35-3.62-3-1.24-.61-2.51-.96-3.79-1.08-1.29-.12-2.59,0-3.92.38-1.33.42-2.68,1.02-4.09,2.33,1.16,1.54,2.38,2.36,3.62,3.01,1.24.61,2.51.96,3.79,1.07,1.29.11,2.59,0,3.92-.39,1.33-.43,2.68-1.02,4.09-2.32Z"/>
        <path class="cls-66" d="M5727.17,2689.39c0-1.92-.47-3.31-1.05-4.59-.61-1.24-1.41-2.28-2.36-3.16-.95-.88-2.06-1.57-3.35-2.08-1.32-.47-2.75-.82-4.67-.64-.01,1.93.46,3.32,1.05,4.59.62,1.24,1.41,2.28,2.37,3.15.95.87,2.06,1.57,3.35,2.07,1.32.47,2.75.82,4.66.64Z"/>
        <path class="cls-66" d="M5713.88,2700.92c.89-1.7,1.11-3.15,1.18-4.55.03-1.38-.2-2.68-.64-3.89-.44-1.21-1.1-2.35-2.01-3.39-.95-1.03-2.06-1.99-3.85-2.72-.9,1.7-1.12,3.16-1.19,4.56-.03,1.38.2,2.68.65,3.89.45,1.21,1.11,2.34,2.02,3.38.95,1.03,2.06,2,3.84,2.72Z"/>
      </g>
      <path class="cls-54" d="M5710.31,2662.18c1.62-3.34,3.25-6.68,5.27-9.79.59-.9,1.32-1.86,2.38-2.04,1.49-.26,2.81,1.24,2.95,2.74.14,1.5-.54,2.95-1.2,4.3-7.35,15-14.69,30-22.04,45-.37.75-.78,1.55-1.53,1.9-1.4.66-3.05-.76-3.25-2.29-.2-1.53.56-3,1.27-4.37,1.28-2.44,1.36-5.02,2.57-7.51,1.53-3.14,3.05-6.28,4.58-9.42,3-6.17,6-12.35,8.99-18.52Z"/>
    </g>
    <path class="cls-55" d="M5560.26,2715.52c-5.09-6.91.46-18.59,9.03-19-9.33-.04-17.53-8.91-17.25-18.23.28-9.32,8.6-17.56,17.91-18.15,9.31-.59,18.43,6.19,20.95,15.17-3.02-8.25,2.5-18.33,10.92-20.83,8.42-2.5,18.17,2.4,21.8,10.4,3.63,8,1.24,18.11-5.11,24.18,3.97-6.8,15.23-6.79,20.01-.53,4.78,6.26,2.75,16.18-3.48,21.01-6.22,4.83-15.4,4.78-22.29.96,4.08,2.26,2.18,23.15,1.04,26.91-2.06,6.78-6.23,12.93-13.89,12.97-18.7.11-16.77-25.57-18.84-37.33-3.96,7.04-15.47,9.69-20.8,2.46Z"/>
    <path class="cls-55" d="M5781.47,2523.66c8,3.12,9.54,15.96,2.51,20.88,7.91-4.94,19.58-1.83,24.32,6.2,4.74,8.03,2.11,19.44-5.45,24.91-7.55,5.47-18.89,4.6-25.82-1.64,6.96,5.36,7.68,16.83,1.9,23.45-5.78,6.61-16.65,7.67-23.99,2.85-7.34-4.83-10.73-14.65-8.6-23.17.28,7.87-9.25,13.88-16.64,11.14-7.39-2.74-10.96-12.21-8.28-19.62,2.68-7.41,10.47-12.26,18.33-12.72-4.66.27-14.21-18.41-15.25-22.2-1.88-6.83-1.64-14.26,4.81-18.39,15.75-10.08,27.83,12.66,35.87,21.5-.41-8.07,7.91-16.45,16.27-13.19Z"/>
    <path class="cls-66" d="M5636.87,2645.51c-27.15-18.05-26.41-58.69-1.23-78.55,13.84-11.43,35.24-14.5,50.75-5.96-11.38-1.36-22.31.28-31.75,4.75-30.86,14.46-38.11,52.9-17.78,79.76h0Z"/>
    <path class="cls-66" d="M5856.64,2712.11c-27.14,18.07-64.33,1.69-72.93-29.22-5.19-17.18.24-38.11,14.11-49.11-5.65,9.97-8.36,20.69-7.89,31.12,1.41,34.05,34.07,55.59,66.7,47.21h0Z"/>
    <g>
      <path class="cls-66" d="M5587.03,2595.2c1.23,2.06-1.94,5.9-3.02,7.62-1.54,2.45-7.88,12.77-11.61,7.98-2.84-3.66,1.01-8.52,3.61-11.04,1.73-1.67,3.82-3.23,6.06-4.15,3.04-1.25,4.48-1.2,4.95-.42Z"/>
      <path class="cls-66" d="M5611.06,2579.4c-.54,2.33-5.5,2.89-7.47,3.38-2.81.69-14.55,3.71-13.89-2.32.5-4.6,6.65-5.42,10.27-5.42,2.4,0,5,.33,7.24,1.23,3.05,1.21,4.05,2.25,3.85,3.14Z"/>
      <path class="cls-66" d="M5575.94,2570.59c1.23,2.06-1.94,5.9-3.02,7.62-1.54,2.45-7.88,12.77-11.61,7.98-2.84-3.66,1.01-8.52,3.61-11.04,1.73-1.67,3.83-3.23,6.06-4.15,3.04-1.25,4.48-1.2,4.95-.42Z"/>
    </g>
    <g>
      <path class="cls-66" d="M5935.13,2748.66c-2.4-.07-3.93-4.81-4.8-6.65-1.24-2.62-6.53-13.52-.49-14.08,4.61-.43,6.64,5.44,7.36,8.98.48,2.35.67,4.96.24,7.34-.58,3.23-1.4,4.42-2.31,4.4Z"/>
      <path class="cls-66" d="M5935.52,2777.41c-1.68-1.71.52-6.19,1.17-8.11.93-2.74,4.7-14.26,9.43-10.46,3.61,2.9,1,8.52-.95,11.57-1.29,2.02-2.97,4.03-4.93,5.44-2.67,1.92-4.08,2.21-4.72,1.56Z"/>
      <path class="cls-66" d="M5961.85,2752.55c-2.4-.07-3.93-4.81-4.8-6.65-1.24-2.62-6.53-13.52-.49-14.08,4.61-.43,6.64,5.44,7.36,8.98.48,2.35.67,4.96.24,7.34-.58,3.23-1.4,4.42-2.31,4.4Z"/>
    </g>
    <path class="cls-55" d="M5884.94,2590.35c-3.24,4.49-7.04,7.63-10.97,10.46-3.96,2.77-8.14,4.98-12.49,6.8-4.35,1.81-8.88,3.2-13.63,4.05-4.78.79-9.69,1.26-15.16.36,3.23-4.51,7.03-7.65,10.97-10.47,3.96-2.76,8.14-4.98,12.5-6.78,4.36-1.79,8.88-3.19,13.64-4.03,4.78-.79,9.68-1.26,15.15-.38Z"/>
    <path class="cls-55" d="M5657.14,2530.3c-5.31-1.59-9.52-4.15-13.48-6.94-3.91-2.83-7.38-6.06-10.52-9.57-3.14-3.52-5.94-7.34-8.3-11.55-2.31-4.25-4.36-8.74-5.31-14.2,5.32,1.58,9.54,4.13,13.49,6.93,3.91,2.83,7.37,6.06,10.51,9.58,3.12,3.53,5.93,7.35,8.28,11.56,2.31,4.25,4.37,8.74,5.33,14.19Z"/>
  </g>
  <g>
    <path class="cls-12" d="M6152.03,2859.11c-22.61,4.9-26.58,8.88-31.49,31.49-4.9-22.61-8.88-26.58-31.49-31.49,22.61-4.9,26.58-8.88,31.49-31.49,4.9,22.61,8.88,26.58,31.49,31.49Z"/>
    <path class="cls-12" d="M5759.4,2408.89c-22.61,4.9-26.58,8.88-31.49,31.49-4.9-22.61-8.88-26.58-31.49-31.49,22.61-4.9,26.58-8.88,31.49-31.49,4.9,22.61,8.88,26.58,31.49,31.49Z"/>
    <path class="cls-12" d="M5607.71,3036.29c-22.61,4.9-26.58,8.88-31.49,31.49-4.9-22.61-8.88-26.58-31.49-31.49,22.61-4.9,26.58-8.88,31.49-31.49,4.9,22.61,8.88,26.58,31.49,31.49Z"/>
  </g>
  <g>
    <path class="cls-12" d="M5951.61,2231.62c13.49,0,13.49,20,26.98,20s13.49-20,26.98-20,13.49,20,26.98,20,13.49-20,26.98-20,13.49,20,26.98,20"/>
    <path class="cls-12" d="M6362.2,2825.43c13.49,0,13.49,20,26.98,20s13.49-20,26.98-20,13.49,20,26.98,20,13.49-20,26.98-20,13.49,20,26.98,20"/>
    <path class="cls-12" d="M5904.38,3118.39c13.49,0,13.49,20,26.98,20s13.49-20,26.98-20,13.49,20,26.98,20,13.49-20,26.98-20,13.49,20,26.98,20"/>
  </g>
  <image width="1158" height="1460" transform="translate(1479.37 1379.81) scale(.5)" xlink:href="../../../design/Inspiration/Bildschirmfoto 2025-10-02 um 09.05.01.png"/>
  <image width="1232" height="1374" transform="translate(759.46 1516.69) scale(.5)" xlink:href="../../../design/Inspiration/Bildschirmfoto 2025-10-02 um 09.05.41.png"/>
  <rect class="cls-68" x="6705.12" y="2194.13" width="1081" height="1080"/>
  <text class="cls-5" transform="translate(7137.53 2449.27)"><tspan class="cls-19"><tspan class="cls-116" x="0" y="0">E</tspan><tspan class="cls-108" x="77.5" y="0">x</tspan><tspan class="cls-92" x="146.81" y="0">p</tspan><tspan class="cls-65" x="216.13" y="0">l</tspan><tspan class="cls-116" x="255.81" y="0">o</tspan><tspan class="cls-106" x="325.49" y="0">r</tspan><tspan class="cls-116" x="384.27" y="0">i</tspan><tspan class="cls-127" x="424.2" y="0">n</tspan><tspan class="cls-120" x="500.83" y="0">g</tspan></tspan><tspan class="cls-82"><tspan class="cls-95" x="-46" y="120">r</tspan><tspan class="cls-116" x="8.93" y="120">est</tspan><tspan class="cls-70" x="180.91" y="120">a</tspan><tspan class="cls-107" x="247.75" y="120">u</tspan><tspan class="cls-101" x="320.53" y="120">r</tspan><tspan class="cls-120" x="376.09" y="120">a</tspan><tspan class="cls-74" x="443.91" y="120">n</tspan><tspan class="cls-120" x="519.68" y="120">t</tspan></tspan><tspan class="cls-19"><tspan class="cls-120" x="81.46" y="240">ca</tspan><tspan class="cls-95" x="208.19" y="240">r</tspan><tspan class="cls-123" x="263.12" y="240">e</tspan><tspan class="cls-116" x="326.73" y="240">er</tspan><tspan class="cls-87" x="447.63" y="240">s</tspan><tspan class="cls-120" x="500.46" y="240">?</tspan></tspan></text>
  <circle class="cls-56" cx="6135.99" cy="2213.4" r="6.27"/>
  <path class="cls-56" d="M7386.63,3016.88c0,3.46,2.81,6.27,6.27,6.27s6.27-2.81,6.27-6.27-2.81-6.27-6.27-6.27-6.27,2.81-6.27,6.27Z"/>
  <text class="cls-20" transform="translate(7374.16 2767.94)"><tspan x="0" y="0">APPLY NOW</tspan></text>
  <g class="cls-58">
    <path class="cls-24" d="M6957.7,2270.18c-6.89,42.7-15.23,88.36-45.65,119.11-31.34,31.68-79.03,40.24-116.05,65.06-34.11,22.87-59.11,59.53-97.32,74.59-54.5,21.49-119.51-11.33-148.88-62.03-29.37-50.69-29.42-113.56-17.54-170.93,21.37-103.18,79.56-198.35,161.68-264.38,57.26-46.05,203.95-134.66,279.11-87.49,45.63,28.64,22.47,91.59,15.59,134.25-10.32,63.94-20.63,127.87-30.95,191.81Z"/>
    <path class="cls-24" d="M7433.51,3228.44c15.59-29.25,44.6-48.59,73.12-65.48,28.52-16.89,58.58-33.3,78.81-59.56,16.68-21.64,25.56-48.68,43.38-69.38,31.17-36.21,87.33-45.91,131.18-26.93,43.85,18.98,74.33,63.06,82.21,110.19,7.89,47.13-5.18,96.35-30.51,136.87-36.13,57.79-97.55,99.13-164.7,110.84-69.91,12.19-272.57-25.73-213.51-136.55Z"/>
    <path class="cls-24" d="M7456.4,2243.16c19.79,28.14,57.79,39.4,91.82,34.3,34.48-5.18,69.46-24.7,102.21-12.72,25.07,9.17,40.24,34.15,61.01,50.92,28.86,23.29,71,29.69,104.66,14.12,33.66-15.58,56.32-53.25,52.33-90.12-4.86-44.9-44.12-78.36-84.63-98.3-67.68-33.31-146.99-41.11-220.28-24.08-53.71,12.48-159.18,51.87-107.11,125.89Z"/>
    <path class="cls-24" d="M6746.32,3021.84c50.47.42,98.66,36.29,113.54,84.52,3.57,11.56,5.47,23.88,11.77,34.21,21.05,34.54,71.73,26.48,112.15,28.06,37.41,1.46,74.88,15.96,100.77,43,25.88,27.04,38.82,67.05,29.91,103.41-9.91,40.47-44.97,71.42-84.2,85.45-39.23,14.03-82.22,13.36-123.57,8.29-77.59-9.52-156.12-35.78-211.47-90.97-77.13-76.9-109.45-297.29,51.1-295.97Z"/>
  </g>
  <g class="cls-63">
    <path class="cls-23" d="M3997.74,671.94c-8.71,47.24-19.24,97.75-57.68,131.76-39.6,35.05-99.87,44.51-146.64,71.97-43.1,25.3-74.69,65.85-122.98,82.52-68.87,23.77-151.01-12.54-188.13-68.61-37.11-56.08-37.18-125.62-22.17-189.09,27-114.14,100.54-219.41,204.3-292.46,72.36-50.94,257.72-148.97,352.7-96.78,57.65,31.68,28.4,101.32,19.7,148.51-13.04,70.73-26.07,141.46-39.11,212.18Z"/>
    <path class="cls-23" d="M4638.64,1735.88c19.7-32.36,56.36-53.75,92.4-72.43,36.04-18.69,74.03-36.84,99.59-65.89,21.07-23.94,32.3-53.85,54.82-76.75,39.39-40.06,110.36-50.78,165.77-29.79,55.41,21,93.92,69.76,103.89,121.89,9.97,52.13-6.54,106.58-38.55,151.4-45.66,63.93-123.27,109.66-208.12,122.61-88.35,13.49-344.43-28.47-269.8-151.05Z"/>
  </g>
  <g>
    <g>
      <path class="cls-19" d="M6766.25,2771.37l-16.95,152.99s142.23,168.19,424.24,166.15l87.76-123.64-495.05-195.51Z"/>
      <polygon class="cls-19" points="7224.63 3009.47 7301.11 3039.84 7317.83 3002.82 7237.37 2972.98 7224.63 3009.47"/>
      <path class="cls-66" d="M7261.31,2966.87c-2.65,6.73-9.62,11.47-20.13,14.31-42.27,11.42-142.07-7.71-251.53-50.93-110.81-43.75-197.51-98.79-219.27-136.04-5.11-8.71-6.64-16.45-4.12-22.84,13.34-33.74,134.96-17.35,271.67,36.64,136.69,53.98,236.72,125.11,223.39,158.87Z"/>
      <path class="cls-82" d="M7241.18,2981.18c-42.27,11.42-142.07-7.71-251.53-50.93-110.81-43.75-197.51-98.79-219.27-136.04,42.26-11.42,142.06,7.69,251.53,50.93,110.8,43.76,197.5,98.78,219.27,136.04Z"/>
      <path class="cls-12" d="M6800.96,2827.32s168.69-27.56,413.71,157.07"/>
      <g>
        <path class="cls-18" d="M7296.05,3058.74s-7.5-36.69,28.51-70.64l272.81,105.32s11.97,40.02-36.91,71.23l-264.4-105.91Z"/>
        <g class="cls-61">
          <path class="cls-12" d="M7275.3,3081.85c16.66,2.88,33.63-5.23,45.88-16.88,12.25-11.65,20.76-26.58,29.8-40.86,9.04-14.29,19.16-28.51,33.43-37.58,14.27-9.07,33.65-11.94,47.97-2.97,14.33,8.98,19.4,31.68,7.26,43.44-6.33,6.13-15.44,8.21-24.07,9.97-8.63,1.77-17.75,3.72-24.22,9.69-6.48,5.98-8.74,17.44-2.24,23.4,6.79,6.23,17.72,2.81,25.69-1.83,7.96-4.63,16.81-10.42,25.64-7.8,14.07,4.17,16.47,26.14,30.58,30.18,11.11,3.18,21.46-7.04,27.07-17.15,5.61-10.11,10.41-22.1,21.03-26.66,13.7-5.88,30.54,5.95,32.75,20.69s-7.4,29.43-20.35,36.82c-12.94,7.39-28.51,8.68-43.39,7.83-14.88-.85-29.64-3.64-44.54-3.74-19.75-.13-43.01,7.81-47.76,26.98-4.62,18.66,12.44,37.07,31.21,41.21,18.77,4.14,38.13-1.88,56.4-7.84,15.38-5.01,31.33-10.36,42.96-21.6,8.05-7.79,13.84-18.23,23.66-23.63,15.16-8.33,35.07-1.19,46.61,11.69,11.54,12.88,16.7,30.1,21.53,46.71,9.17-9.69,18.35-19.38,27.52-29.07"/>
        </g>
      </g>
      <path class="cls-13" d="M6768.49,2918.46s195.65,168.18,394.85,153.47"/>
    </g>
    <g>
      <path class="cls-66" d="M6944.3,2847.55c-3.04,1.14-6.29,1.52-9.52.91-5.71-1.1-11.34-5.01-16.81-3.11-7.75,2.68-7.64,13.72-12.4,20.39-4.18,5.85-12.93,7.84-19.22,4.37-6.28-3.48-9.27-11.94-6.54-18.6,1.99-4.82,6.31-8.21,10.07-11.84,3.74-3.63,7.28-8.28,6.91-13.49-.24-3.17-2.3-5.78-5.29-6.81-4.04-1.38-6.67-2.51-8.25-5.83-.34-.68-.62-1.47-.86-2.36-1.33-4.92-.98-10.5,1.64-14.93,4.14-6.99,12.32-10.91,20.42-11.49,8.09-.59,16.14,1.75,23.6,4.94,8.97,3.84,17.59,9.11,23.53,16.84,5.94,7.73,8.83,18.25,5.76,27.49-2.05,6.14-7.08,11.3-13.03,13.54Z"/>
      <path class="cls-19" d="M6944.3,2847.55c-3.61-2.79-4.02-8.59-3.92-13.42.08-5.41-.75-12.07-5.79-14-5.81-2.2-13.01,3.93-18.17.43-3.11-2.13-3.38-6.51-4.75-10.02-2.66-6.83-10.88-10.94-17.94-8.96-4.01,1.14-7.33,4.14-9.19,7.84-.63,1.25-.96,2.7-1.3,4.11-.34-.68-.62-1.47-.86-2.36-1.33-4.92-.98-10.5,1.64-14.93,4.14-6.99,12.32-10.91,20.42-11.49,8.09-.59,16.14,1.75,23.6,4.94,8.97,3.84,17.59,9.11,23.53,16.84,5.94,7.73,8.83,18.25,5.76,27.49-2.05,6.14-7.08,11.3-13.03,13.54Z"/>
    </g>
    <g>
      <path class="cls-66" d="M7146.09,2707.32c-1.87,3.12-4.47,5.73-7.72,7.44-5.78,3.01-13.46,3.51-16.93,8.99-4.94,7.77,2.86,17.38,3.34,26.56.41,8.05-5.89,15.9-13.84,17.24-7.95,1.32-16.47-4.03-18.72-11.77-1.62-5.62-.19-11.61.59-17.42.76-5.8.62-12.36-3.35-16.67-2.42-2.61-6.05-3.47-9.4-2.29-4.51,1.6-7.61,2.44-11.32.64-.77-.36-1.56-.86-2.4-1.47-4.6-3.39-8.19-8.54-8.97-14.26-1.24-9.03,3.21-18.18,9.92-24.34,6.69-6.16,15.4-9.72,24.17-12.13,10.56-2.89,21.8-4.27,32.41-1.62,10.61,2.65,20.48,9.87,24.24,20.13,2.48,6.82,1.66,14.86-2,20.98Z"/>
      <path class="cls-19" d="M7146.09,2707.32c-5.11.07-9.52-4.74-12.81-9.05-3.7-4.81-9.08-10.07-14.85-8.26-6.64,2.12-8.69,12.53-15.65,13.05-4.22.3-7.51-3.36-11.16-5.49-7.1-4.14-17.19-2.02-22.01,4.64-2.73,3.79-3.55,8.75-2.6,13.3.32,1.54,1.04,3.04,1.72,4.52-.77-.36-1.56-.86-2.4-1.47-4.6-3.39-8.19-8.54-8.97-14.26-1.24-9.03,3.21-18.18,9.92-24.34,6.69-6.16,15.4-9.72,24.17-12.13,10.56-2.89,21.8-4.27,32.41-1.62,10.61,2.65,20.48,9.87,24.24,20.13,2.48,6.82,1.66,14.86-2,20.98Z"/>
    </g>
    <g>
      <path class="cls-54" d="M6864.77,2700.02c2.77-11.57,8.27-22.96,17.77-30.11,9.5-7.15,23.55-9.01,33.31-2.2,8.94,6.23,12.69,18.06,21.64,24.27,8.29,5.75,19.64,5.7,27.72,11.73,6,4.47,9.39,11.9,9.91,19.36.52,7.46-1.62,14.93-5.05,21.57-9.26,17.95-28.53,30.31-48.71,31.24-20.39.94-35.96-9.25-49.48-23.33-12.31-12.81-11.03-36.14-7.11-52.53Z"/>
      <path class="cls-82" d="M6869.66,2702.27c2.49-10.39,7.43-20.62,15.96-27.04,8.54-6.42,21.15-8.09,29.92-1.98,8.03,5.6,11.4,16.22,19.44,21.8,7.44,5.16,17.64,5.12,24.9,10.53,5.39,4.01,8.44,10.69,8.9,17.39.47,6.7-1.45,13.41-4.53,19.38-8.32,16.13-25.63,27.22-43.75,28.06-18.31.84-32.3-8.31-44.44-20.95-11.05-11.51-9.91-32.46-6.39-47.18Z"/>
      <g>
        <path class="cls-66" d="M6897.72,2696.53c1.92.02,3.31.51,4.57,1.11,1.23.63,2.27,1.44,3.13,2.4.86.96,1.55,2.08,2.04,3.37.46,1.32.78,2.76.58,4.67-1.93-.01-3.32-.5-4.58-1.1-1.23-.63-2.27-1.44-3.12-2.4-.86-.97-1.54-2.08-2.03-3.38-.45-1.33-.79-2.76-.59-4.67Z"/>
        <path class="cls-66" d="M6889.05,2713.53c1.53-1.15,2.94-1.6,4.31-1.89,1.36-.25,2.67-.23,3.94,0,1.27.24,2.49.71,3.67,1.44,1.17.77,2.3,1.72,3.3,3.36-1.54,1.16-2.94,1.62-4.31,1.9-1.36.25-2.67.23-3.94-.01-1.27-.25-2.49-.72-3.66-1.45-1.17-.78-2.3-1.71-3.3-3.35Z"/>
        <path class="cls-66" d="M6887.75,2731.07c.83-1.73,1.87-2.78,2.95-3.67,1.09-.85,2.26-1.44,3.5-1.81,1.24-.37,2.54-.52,3.92-.41,1.39.15,2.83.46,4.48,1.46-.83,1.74-1.86,2.79-2.95,3.68-1.09.85-2.26,1.44-3.5,1.8-1.24.37-2.54.51-3.92.4-1.39-.15-2.83-.46-4.48-1.45Z"/>
      </g>
      <g>
        <path class="cls-66" d="M6941.98,2719.64c-1.16-1.53-2.38-2.35-3.62-3-1.24-.61-2.51-.96-3.79-1.08-1.29-.12-2.59,0-3.92.38-1.33.42-2.68,1.02-4.09,2.33,1.16,1.54,2.38,2.36,3.62,3.01,1.24.61,2.51.96,3.79,1.07,1.29.11,2.59,0,3.92-.39,1.33-.43,2.68-1.02,4.09-2.32Z"/>
        <path class="cls-66" d="M6933.53,2736.75c0-1.92-.47-3.31-1.05-4.59-.61-1.24-1.41-2.28-2.36-3.16-.95-.88-2.06-1.57-3.35-2.08-1.32-.47-2.75-.82-4.67-.64-.01,1.93.46,3.32,1.05,4.59.62,1.24,1.41,2.28,2.37,3.15.95.87,2.06,1.57,3.35,2.07,1.32.47,2.75.82,4.66.64Z"/>
        <path class="cls-66" d="M6920.23,2748.27c.89-1.7,1.11-3.15,1.18-4.55.03-1.38-.2-2.68-.64-3.89-.44-1.21-1.1-2.35-2.01-3.39-.95-1.03-2.06-1.99-3.85-2.72-.9,1.7-1.12,3.16-1.19,4.56-.03,1.38.2,2.68.65,3.89.45,1.21,1.11,2.34,2.02,3.38.95,1.03,2.06,2,3.84,2.72Z"/>
      </g>
      <path class="cls-54" d="M6916.66,2709.53c1.62-3.34,3.25-6.68,5.27-9.79.59-.9,1.32-1.86,2.38-2.04,1.49-.26,2.81,1.24,2.95,2.74.14,1.5-.54,2.95-1.2,4.3-7.35,15-14.69,30-22.04,45-.37.75-.78,1.55-1.53,1.9-1.4.66-3.05-.76-3.25-2.29-.2-1.53.55-3,1.27-4.37,1.28-2.44,1.36-5.02,2.57-7.51,1.53-3.14,3.05-6.28,4.58-9.42,3-6.17,6-12.35,8.99-18.52Z"/>
    </g>
    <path class="cls-48" d="M6766.62,2762.88c-5.09-6.91.46-18.59,9.03-19-9.33-.04-17.53-8.91-17.25-18.23.28-9.32,8.6-17.56,17.91-18.15,9.31-.59,18.43,6.19,20.95,15.17-3.02-8.25,2.5-18.33,10.92-20.83,8.42-2.5,18.17,2.4,21.8,10.4,3.63,8,1.24,18.11-5.11,24.18,3.97-6.8,15.23-6.79,20.01-.53,4.78,6.26,2.75,16.18-3.48,21.01-6.22,4.83-15.4,4.78-22.29.96,4.08,2.26,2.18,23.15,1.04,26.91-2.06,6.78-6.23,12.93-13.89,12.97-18.7.11-16.77-25.57-18.84-37.33-3.96,7.04-15.47,9.69-20.8,2.46Z"/>
    <path class="cls-48" d="M6987.82,2571.02c8,3.12,9.54,15.96,2.51,20.88,7.91-4.94,19.58-1.83,24.32,6.2,4.74,8.03,2.11,19.44-5.45,24.91-7.55,5.47-18.89,4.6-25.82-1.64,6.96,5.36,7.68,16.83,1.9,23.45-5.78,6.61-16.65,7.67-23.99,2.85-7.34-4.83-10.73-14.65-8.6-23.17.28,7.87-9.25,13.88-16.64,11.14-7.39-2.74-10.96-12.21-8.28-19.62,2.68-7.41,10.47-12.26,18.33-12.72-4.66.27-14.21-18.41-15.25-22.2-1.88-6.83-1.64-14.26,4.81-18.39,15.75-10.08,27.83,12.66,35.87,21.5-.41-8.07,7.91-16.45,16.27-13.19Z"/>
    <path class="cls-66" d="M6843.22,2692.86c-27.15-18.05-26.41-58.69-1.23-78.55,13.84-11.43,35.24-14.5,50.75-5.96-11.39-1.36-22.31.28-31.75,4.75-30.86,14.46-38.11,52.9-17.78,79.76h0Z"/>
    <path class="cls-66" d="M7062.99,2759.46c-27.14,18.07-64.33,1.69-72.93-29.22-5.19-17.18.25-38.11,14.11-49.11-5.65,9.97-8.36,20.69-7.89,31.12,1.41,34.05,34.07,55.59,66.7,47.21h0Z"/>
    <g>
      <path class="cls-66" d="M6793.38,2642.56c1.23,2.06-1.94,5.9-3.02,7.62-1.54,2.45-7.88,12.77-11.61,7.98-2.84-3.66,1.01-8.52,3.61-11.04,1.73-1.67,3.82-3.23,6.06-4.15,3.04-1.25,4.48-1.2,4.95-.42Z"/>
      <path class="cls-66" d="M6817.41,2626.76c-.54,2.33-5.5,2.89-7.47,3.38-2.81.69-14.55,3.71-13.89-2.32.5-4.6,6.65-5.42,10.27-5.42,2.4,0,5,.33,7.24,1.23,3.05,1.21,4.05,2.25,3.85,3.14Z"/>
      <path class="cls-66" d="M6782.29,2617.94c1.23,2.06-1.94,5.9-3.02,7.62-1.54,2.45-7.88,12.77-11.61,7.98-2.84-3.66,1.01-8.52,3.61-11.04,1.73-1.67,3.83-3.23,6.06-4.15,3.04-1.25,4.48-1.2,4.95-.42Z"/>
    </g>
    <g>
      <path class="cls-66" d="M7141.48,2796.01c-2.4-.07-3.93-4.81-4.8-6.65-1.24-2.62-6.53-13.52-.49-14.08,4.61-.43,6.64,5.44,7.36,8.98.48,2.35.67,4.96.24,7.34-.58,3.23-1.4,4.42-2.31,4.4Z"/>
      <path class="cls-66" d="M7141.88,2824.77c-1.68-1.71.52-6.19,1.17-8.11.93-2.74,4.7-14.26,9.43-10.46,3.61,2.9,1,8.52-.95,11.57-1.29,2.02-2.97,4.03-4.93,5.44-2.67,1.92-4.08,2.21-4.72,1.56Z"/>
      <path class="cls-66" d="M7168.2,2799.9c-2.4-.07-3.93-4.81-4.8-6.65-1.24-2.62-6.53-13.52-.49-14.08,4.61-.43,6.64,5.44,7.36,8.98.48,2.35.67,4.96.24,7.34-.58,3.23-1.4,4.42-2.31,4.4Z"/>
    </g>
    <path class="cls-48" d="M7091.3,2637.7c-3.24,4.49-7.04,7.63-10.97,10.46-3.96,2.77-8.14,4.98-12.49,6.8-4.35,1.81-8.88,3.2-13.63,4.05-4.78.79-9.69,1.26-15.16.36,3.23-4.51,7.03-7.65,10.97-10.47,3.96-2.76,8.14-4.98,12.5-6.78,4.36-1.79,8.88-3.19,13.64-4.03,4.78-.79,9.68-1.26,15.15-.38Z"/>
    <path class="cls-48" d="M6863.5,2577.66c-5.31-1.59-9.52-4.15-13.48-6.94-3.91-2.83-7.38-6.06-10.52-9.57-3.14-3.52-5.94-7.34-8.3-11.55-2.31-4.25-4.36-8.74-5.31-14.2,5.32,1.58,9.54,4.13,13.49,6.92,3.91,2.83,7.37,6.06,10.51,9.58,3.12,3.53,5.93,7.35,8.28,11.56,2.31,4.25,4.37,8.74,5.33,14.19Z"/>
  </g>
  <g>
    <path class="cls-12" d="M7358.38,2906.46c-22.61,4.9-26.58,8.88-31.49,31.49-4.9-22.61-8.88-26.58-31.49-31.49,22.61-4.9,26.58-8.88,31.49-31.49,4.9,22.61,8.88,26.58,31.49,31.49Z"/>
    <path class="cls-12" d="M6965.76,2456.25c-22.61,4.9-26.58,8.88-31.49,31.49-4.9-22.61-8.88-26.58-31.49-31.49,22.61-4.9,26.58-8.88,31.49-31.49,4.91,22.61,8.88,26.58,31.49,31.49Z"/>
    <path class="cls-12" d="M6814.06,3083.65c-22.61,4.9-26.58,8.88-31.49,31.49-4.9-22.61-8.88-26.58-31.49-31.49,22.61-4.9,26.58-8.88,31.49-31.49,4.9,22.61,8.88,26.58,31.49,31.49Z"/>
  </g>
  <g>
    <path class="cls-12" d="M7157.97,2278.97c13.49,0,13.49,20,26.98,20s13.49-20,26.98-20,13.49,20,26.98,20,13.49-20,26.98-20,13.49,20,26.98,20"/>
    <path class="cls-12" d="M7568.56,2872.79c13.49,0,13.49,20,26.98,20s13.49-20,26.98-20,13.49,20,26.98,20,13.49-20,26.98-20,13.49,20,26.98,20"/>
    <path class="cls-12" d="M7110.73,3165.75c13.49,0,13.49,20,26.98,20s13.49-20,26.98-20,13.49,20,26.98,20,13.49-20,26.98-20,13.49,20,26.98,20"/>
  </g>
  <text class="cls-2" transform="translate(4219.06 1039.36)"><tspan class="cls-53"><tspan class="cls-88" x="0" y="0">E</tspan><tspan class="cls-75" x="58.75" y="0">n</tspan><tspan class="cls-100" x="117.7" y="0">t</tspan><tspan class="cls-112" x="153.97" y="0">d</tspan><tspan class="cls-125" x="209.92" y="0">e</tspan><tspan class="cls-67" x="259.41" y="0">c</tspan><tspan class="cls-85" x="304.56" y="0">k</tspan><tspan class="cls-115" x="359.45" y="0">e</tspan></tspan><tspan class="cls-82"><tspan class="cls-114" x="-178.66" y="93.36">n</tspan><tspan class="cls-122" x="-119.23" y="93.36">e</tspan><tspan class="cls-111" x="-69.84" y="93.36">u</tspan><tspan class="cls-115" x="-13.31" y="93.36">e </tspan><tspan class="cls-67" x="55.67" y="93.36">R</tspan><tspan class="cls-125" x="118.95" y="93.36">ez</tspan><tspan class="cls-115" x="218.12" y="93.36">ep</tspan><tspan class="cls-89" x="323.57" y="93.36">t</tspan><tspan class="cls-115" x="359.45" y="93.36">e</tspan></tspan></text>
  <text class="cls-46" transform="translate(4370.65 1219.74)"><tspan x="0" y="0">APPLY NOW</tspan></text>
  <path class="cls-50" d="M3850.72,1289.95l-13.19,119.03s110.65,130.85,330.06,129.27l68.28-96.19-385.15-152.1Z"/>
  <polygon class="cls-50" points="4207.33 1475.19 4266.84 1498.82 4279.85 1470.02 4217.25 1446.8 4207.33 1475.19"/>
  <path class="cls-71" d="M4235.87,1442.05c-2.06,5.24-7.48,8.92-15.66,11.13-32.88,8.88-110.53-6-195.69-39.63-86.21-34.04-153.66-76.86-170.59-105.84-3.97-6.78-5.17-12.8-3.2-17.77,10.37-26.25,105-13.5,211.36,28.51,106.35,42,184.17,97.34,173.8,123.6Z"/>
  <path class="cls-82" d="M4220.21,1453.18c-32.88,8.88-110.53-6-195.69-39.63-86.21-34.04-153.66-76.86-170.59-105.84,32.88-8.88,110.52,5.99,195.69,39.63,86.2,34.04,153.66,76.85,170.59,105.84Z"/>
  <path class="cls-12" d="M3877.72,1333.48s131.24-21.44,321.86,122.2"/>
  <g>
    <path class="cls-22" d="M4262.9,1513.52s-5.84-28.55,22.18-54.96l212.24,81.94s9.31,31.14-28.72,55.41l-205.7-82.4Z"/>
    <g class="cls-60">
      <path class="cls-14" d="M4246.76,1531.5c12.96,2.24,26.17-4.07,35.69-13.13,9.53-9.07,16.15-20.68,23.18-31.79,7.03-11.11,14.91-22.18,26.01-29.24,11.1-7.06,26.18-9.29,37.32-2.31,11.15,6.98,15.09,24.64,5.65,33.8-4.92,4.77-12.01,6.38-18.73,7.76-6.72,1.38-13.81,2.89-18.84,7.54-5.04,4.65-6.8,13.57-1.74,18.2,5.28,4.84,13.79,2.18,19.98-1.42,6.2-3.61,13.08-8.1,19.95-6.07,10.95,3.24,12.81,20.34,23.79,23.48,8.65,2.47,16.69-5.48,21.06-13.34s8.1-17.19,16.36-20.74c10.66-4.57,23.76,4.63,25.48,16.1s-5.76,22.89-15.83,28.64c-10.07,5.75-22.18,6.75-33.76,6.09-11.58-.66-23.06-2.83-34.65-2.91-15.37-.1-33.46,6.07-37.16,20.99-3.59,14.52,9.68,28.84,24.28,32.06,14.6,3.22,29.66-1.46,43.88-6.1,11.96-3.9,24.37-8.06,33.42-16.8,6.27-6.06,10.77-14.18,18.4-18.38,11.79-6.48,27.28-.93,36.26,9.09,8.98,10.02,12.99,23.42,16.75,36.34,7.14-7.54,14.28-15.08,21.41-22.62"/>
    </g>
  </g>
  <path class="cls-13" d="M3852.45,1404.39s152.21,130.84,307.19,119.4"/>
  <path class="cls-71" d="M3989.23,1349.22c-2.36.89-4.9,1.18-7.4.71-4.44-.86-8.82-3.9-13.08-2.42-6.03,2.09-5.94,10.68-9.64,15.86-3.25,4.55-10.06,6.1-14.95,3.4-4.89-2.71-7.21-9.29-5.09-14.47,1.54-3.75,4.91-6.38,7.84-9.21,2.91-2.82,5.67-6.45,5.37-10.5-.19-2.46-1.79-4.49-4.12-5.3-3.14-1.07-5.19-1.96-6.42-4.54-.26-.53-.48-1.14-.67-1.83-1.04-3.83-.76-8.17,1.28-11.62,3.22-5.44,9.58-8.49,15.89-8.94,6.29-.46,12.56,1.36,18.36,3.84,6.98,2.99,13.69,7.09,18.3,13.1,4.62,6.02,6.87,14.2,4.48,21.39-1.59,4.77-5.51,8.79-10.14,10.53Z"/>
  <path class="cls-19" d="M3989.23,1349.22c-2.81-2.17-3.13-6.68-3.05-10.44.07-4.21-.59-9.39-4.5-10.89-4.52-1.72-10.12,3.06-14.13.34-2.42-1.66-2.63-5.06-3.69-7.8-2.07-5.31-8.47-8.51-13.96-6.97-3.12.88-5.7,3.22-7.15,6.1-.49.97-.75,2.1-1.01,3.2-.26-.53-.48-1.14-.67-1.83-1.04-3.83-.76-8.17,1.28-11.62,3.22-5.44,9.58-8.49,15.89-8.94,6.29-.46,12.56,1.36,18.36,3.84,6.98,2.99,13.69,7.09,18.3,13.1,4.62,6.02,6.87,14.2,4.48,21.39-1.59,4.77-5.51,8.79-10.14,10.53Z"/>
  <path class="cls-71" d="M4146.23,1240.12c-1.45,2.43-3.48,4.45-6.01,5.79-4.5,2.34-10.47,2.73-13.18,7-3.84,6.04,2.23,13.52,2.6,20.66.32,6.26-4.58,12.37-10.76,13.42-6.18,1.03-12.81-3.13-14.57-9.16-1.26-4.37-.14-9.03.46-13.55.59-4.51.48-9.61-2.6-12.97-1.88-2.03-4.71-2.7-7.31-1.78-3.51,1.25-5.92,1.9-8.81.49-.6-.28-1.22-.67-1.87-1.14-3.58-2.64-6.37-6.65-6.98-11.09-.96-7.03,2.5-14.14,7.71-18.94,5.21-4.8,11.98-7.56,18.81-9.44,8.21-2.24,16.96-3.32,25.22-1.26,8.25,2.06,15.93,7.68,18.86,15.66,1.93,5.3,1.29,11.56-1.56,16.32Z"/>
  <path class="cls-19" d="M4146.23,1240.12c-3.98.05-7.4-3.69-9.96-7.04-2.88-3.74-7.06-7.84-11.56-6.42-5.17,1.65-6.76,9.75-12.18,10.16-3.28.23-5.84-2.61-8.68-4.27-5.52-3.22-13.38-1.57-17.13,3.61-2.12,2.95-2.76,6.81-2.02,10.35.25,1.2.81,2.36,1.34,3.51-.6-.28-1.22-.67-1.87-1.14-3.58-2.64-6.37-6.65-6.98-11.09-.96-7.03,2.5-14.14,7.71-18.94,5.21-4.8,11.98-7.56,18.81-9.44,8.21-2.24,16.96-3.32,25.22-1.26,8.25,2.06,15.93,7.68,18.86,15.66,1.93,5.3,1.29,11.56-1.56,16.32Z"/>
  <path class="cls-54" d="M3927.36,1234.44c2.15-9,6.43-17.86,13.83-23.42,7.39-5.56,18.32-7.01,25.91-1.72,6.96,4.85,9.87,14.05,16.84,18.89,6.45,4.47,15.28,4.44,21.57,9.12,4.66,3.48,7.31,9.26,7.71,15.06.4,5.8-1.26,11.61-3.93,16.78-7.21,13.97-22.2,23.58-37.9,24.3-15.86.73-27.98-7.2-38.5-18.15-9.57-9.97-8.59-28.12-5.53-40.87Z"/>
  <path class="cls-82" d="M3931.17,1236.19c1.93-8.08,5.78-16.05,12.42-21.04,6.64-4.99,16.46-6.29,23.27-1.54,6.25,4.36,8.87,12.62,15.12,16.96,5.79,4.02,13.72,3.98,19.37,8.2,4.19,3.12,6.56,8.31,6.93,13.53.36,5.21-1.13,10.43-3.53,15.07-6.47,12.55-19.94,21.18-34.04,21.83-14.25.66-25.13-6.46-34.58-16.3-8.6-8.95-7.71-25.26-4.97-36.71Z"/>
  <g>
    <path class="cls-66" d="M3953,1231.72c1.49.01,2.57.4,3.56.86.96.49,1.76,1.12,2.43,1.87.67.75,1.21,1.62,1.58,2.62.36,1.03.61,2.15.45,3.64-1.5,0-2.58-.39-3.56-.86-.96-.49-1.76-1.12-2.43-1.87-.67-.75-1.2-1.62-1.58-2.63-.35-1.03-.61-2.15-.46-3.63Z"/>
    <path class="cls-66" d="M3946.26,1244.95c1.19-.9,2.28-1.25,3.35-1.47,1.06-.19,2.08-.18,3.07,0,.99.18,1.94.55,2.85,1.12.91.6,1.79,1.34,2.57,2.62-1.2.9-2.29,1.26-3.35,1.48-1.06.19-2.08.18-3.07-.01-.99-.19-1.94-.56-2.85-1.13-.91-.6-1.79-1.33-2.57-2.61Z"/>
    <path class="cls-66" d="M3945.25,1258.6c.65-1.35,1.45-2.16,2.29-2.85.85-.66,1.76-1.12,2.72-1.41.96-.29,1.98-.4,3.05-.32,1.08.12,2.2.36,3.48,1.14-.64,1.35-1.45,2.17-2.29,2.86-.85.66-1.76,1.12-2.73,1.4-.96.28-1.98.4-3.05.31-1.08-.12-2.2-.36-3.48-1.13Z"/>
  </g>
  <g>
    <path class="cls-66" d="M3987.44,1249.71c-.9-1.19-1.85-1.83-2.82-2.34-.97-.48-1.95-.75-2.95-.84-1-.09-2.02,0-3.05.3-1.04.33-2.09.79-3.19,1.81.9,1.2,1.85,1.84,2.82,2.34.97.48,1.95.75,2.95.83,1,.09,2.02,0,3.05-.3,1.04-.33,2.09-.79,3.19-1.8Z"/>
    <path class="cls-66" d="M3980.85,1263.02c0-1.49-.36-2.58-.82-3.57-.48-.97-1.1-1.78-1.84-2.46-.74-.68-1.6-1.23-2.61-1.62-1.02-.37-2.14-.64-3.63-.5,0,1.5.36,2.59.81,3.57.48.96,1.1,1.78,1.84,2.45.74.68,1.61,1.22,2.61,1.61,1.03.37,2.14.64,3.63.5Z"/>
    <path class="cls-66" d="M3970.51,1271.98c.69-1.32.87-2.45.92-3.54.02-1.08-.15-2.08-.5-3.03-.34-.94-.86-1.83-1.57-2.64-.74-.8-1.6-1.55-2.99-2.11-.7,1.32-.88,2.46-.93,3.55-.02,1.08.15,2.08.5,3.02.35.94.86,1.82,1.57,2.63.74.8,1.6,1.55,2.99,2.12Z"/>
  </g>
  <path class="cls-54" d="M3967.73,1241.84c1.26-2.6,2.53-5.2,4.1-7.62.46-.7,1.03-1.45,1.85-1.59,1.16-.2,2.19.96,2.3,2.13.11,1.17-.42,2.29-.94,3.35-5.71,11.67-11.43,23.34-17.14,35.01-.28.58-.61,1.2-1.19,1.48-1.09.51-2.37-.59-2.53-1.78-.16-1.19.43-2.34.99-3.4,1-1.9,1.06-3.9,2-5.84,1.19-2.44,2.37-4.89,3.56-7.33,2.33-4.8,4.66-9.61,7-14.41Z"/>
  <path class="cls-79" d="M3851,1283.35c-3.96-5.37.36-14.46,7.03-14.78-7.25-.03-13.64-6.93-13.42-14.18.22-7.25,6.69-13.66,13.93-14.12,7.24-.46,14.34,4.82,16.3,11.8-2.35-6.42,1.94-14.26,8.5-16.21,6.55-1.95,14.14,1.87,16.96,8.09,2.82,6.22.97,14.09-3.97,18.81,3.09-5.29,11.85-5.28,15.57-.41,3.72,4.87,2.14,12.59-2.71,16.34-4.84,3.76-11.98,3.72-17.34.75,3.17,1.76,1.7,18.01.81,20.94-1.6,5.27-4.85,10.06-10.81,10.09-14.55.09-13.05-19.89-14.66-29.04-3.08,5.48-12.04,7.54-16.18,1.91Z"/>
  <path class="cls-79" d="M4023.1,1134.08c6.22,2.43,7.42,12.42,1.95,16.25,6.15-3.85,15.23-1.42,18.92,4.82,3.69,6.25,1.64,15.12-4.24,19.38-5.88,4.26-14.69,3.58-20.09-1.27,5.42,4.17,5.97,13.1,1.48,18.24-4.5,5.15-12.95,5.97-18.66,2.22-5.71-3.75-8.34-11.4-6.69-18.03.22,6.12-7.2,10.8-12.94,8.66-5.75-2.13-8.53-9.5-6.44-15.26,2.09-5.76,8.15-9.54,14.26-9.89-3.62.21-11.05-14.32-11.86-17.27-1.46-5.31-1.27-11.09,3.75-14.3,12.25-7.84,21.65,9.85,27.9,16.72-.32-6.28,6.15-12.8,12.66-10.26Z"/>
  <path class="cls-73" d="M3910.6,1228.87c-22.3-13.38-21.77-46.38-1.64-61.93,11.01-8.99,28.27-11.21,40.17-3.82-9-.6-17.28.96-24.38,4.52-23.18,11.49-28.58,40.11-14.15,61.23h0Z"/>
  <path class="cls-73" d="M4081.58,1280.69c-20.97,15.4-51.18,2.17-57.75-22.41-4.04-13.62.59-30.4,11.99-38.53-4.03,8.07-5.79,16.31-5.25,24.24,1.64,25.82,25.96,41.86,51.01,36.71h0Z"/>
  <path class="cls-73" d="M3871.83,1189.74c.96,1.6-1.51,4.59-2.35,5.93-1.2,1.91-6.13,9.94-9.03,6.21-2.21-2.85.79-6.63,2.81-8.59,1.34-1.3,2.98-2.51,4.71-3.23,2.36-.97,3.48-.93,3.85-.33Z"/>
  <path class="cls-73" d="M3890.52,1177.44c-.42,1.82-4.28,2.25-5.81,2.63-2.19.54-11.32,2.89-10.81-1.81.39-3.58,5.17-4.22,7.99-4.22,1.87,0,3.89.26,5.63.95,2.37.94,3.15,1.75,3,2.44Z"/>
  <path class="cls-73" d="M3863.2,1170.59c.96,1.6-1.51,4.59-2.35,5.93-1.2,1.91-6.13,9.94-9.03,6.21-2.21-2.85.79-6.63,2.81-8.59,1.34-1.3,2.98-2.51,4.71-3.23,2.36-.97,3.48-.93,3.85-.33Z"/>
  <path class="cls-73" d="M4142.64,1309.12c-1.86-.05-3.06-3.74-3.73-5.17-.96-2.04-5.08-10.52-.38-10.95,3.59-.33,5.16,4.23,5.72,6.99.37,1.83.52,3.86.19,5.71-.45,2.52-1.09,3.44-1.8,3.42Z"/>
  <path class="cls-73" d="M4142.95,1331.49c-1.3-1.33.4-4.81.91-6.31.72-2.13,3.65-11.09,7.34-8.14,2.81,2.25.78,6.63-.74,9-1,1.57-2.31,3.14-3.83,4.23-2.07,1.49-3.17,1.72-3.67,1.21Z"/>
  <path class="cls-73" d="M4163.43,1312.15c-1.86-.05-3.06-3.74-3.73-5.17-.96-2.04-5.08-10.52-.38-10.95,3.59-.33,5.16,4.23,5.73,6.99.37,1.83.52,3.86.19,5.71-.45,2.52-1.09,3.44-1.8,3.42Z"/>
  <path class="cls-79" d="M4103.6,1185.96c-2.52,3.49-5.48,5.94-8.54,8.13-3.08,2.15-6.33,3.88-9.72,5.29-3.39,1.41-6.91,2.49-10.6,3.15-3.72.62-7.54.98-11.79.28,2.52-3.51,5.47-5.95,8.53-8.15,3.08-2.15,6.33-3.87,9.72-5.28,3.39-1.39,6.91-2.48,10.61-3.14,3.72-.61,7.53-.98,11.79-.3Z"/>
  <path class="cls-79" d="M3926.37,1139.25c-4.13-1.24-7.41-3.23-10.48-5.4-3.04-2.2-5.74-4.71-8.19-7.44-2.44-2.74-4.62-5.71-6.46-8.98-1.8-3.31-3.4-6.8-4.13-11.05,4.14,1.23,7.42,3.22,10.5,5.39,3.04,2.2,5.74,4.71,8.17,7.45,2.43,2.75,4.61,5.72,6.45,8.99,1.8,3.31,3.4,6.8,4.15,11.04Z"/>
  <path class="cls-16" d="M4273.56,1349.22c-17.59,3.82-20.68,6.91-24.5,24.5-3.82-17.59-6.91-20.68-24.5-24.5,17.59-3.82,20.68-6.91,24.5-24.5,3.82,17.59,6.91,20.68,24.5,24.5Z"/>
  <path class="cls-16" d="M4000.55,1025.41c-17.59,3.82-20.68,6.91-24.5,24.5-3.82-17.59-6.91-20.68-24.5-24.5,17.59-3.82,20.68-6.91,24.5-24.5,3.82,17.59,6.91,20.68,24.5,24.5Z"/>
  <path class="cls-16" d="M3887.91,1532.9c-17.59,3.82-20.68,6.91-24.5,24.5-3.82-17.59-6.91-20.68-24.5-24.5,17.59-3.82,20.68-6.91,24.5-24.5,3.82,17.59,6.91,20.68,24.5,24.5Z"/>
  <path class="cls-16" d="M4150.09,899.27c10.49,0,10.49,20,20.99,20s10.49-20,20.99-20,10.49,20,20.99,20,10.5-20,20.99-20,10.5,20,20.99,20"/>
  <path class="cls-16" d="M4113.34,1589.18c10.49,0,10.49,20,20.99,20s10.49-20,20.99-20,10.49,20,20.99,20,10.5-20,20.99-20,10.5,20,20.99,20"/>
  <text class="cls-3" transform="translate(4850.98 2420.56)"><tspan class="cls-19"><tspan class="cls-119" x="0" y="0">E</tspan><tspan class="cls-109" x="57.06" y="0">x</tspan><tspan class="cls-93" x="108.1" y="0">p</tspan><tspan class="cls-64" x="159.13" y="0">l</tspan><tspan class="cls-118" x="188.35" y="0">o</tspan><tspan class="cls-105" x="239.66" y="0">r</tspan><tspan class="cls-119" x="282.93" y="0">i</tspan><tspan class="cls-126" x="312.33" y="0">n</tspan><tspan class="cls-119" x="368.75" y="0">g</tspan></tspan><tspan class="cls-82"><tspan class="cls-99" x="-33.87" y="88.35">r</tspan><tspan class="cls-119" x="6.57" y="88.35">est</tspan><tspan class="cls-69" x="133.2" y="88.35">a</tspan><tspan class="cls-110" x="182.41" y="88.35">u</tspan><tspan class="cls-102" x="236" y="88.35">r</tspan><tspan class="cls-119" x="276.91" y="88.35">a</tspan><tspan class="cls-76" x="326.85" y="88.35">n</tspan><tspan class="cls-118" x="382.63" y="88.35">t</tspan></tspan><tspan class="cls-19"><tspan class="cls-119" x="59.98" y="176.71">ca</tspan><tspan class="cls-99" x="153.29" y="176.71">r</tspan><tspan class="cls-124" x="193.73" y="176.71">e</tspan><tspan class="cls-119" x="240.57" y="176.71">er</tspan><tspan class="cls-86" x="329.58" y="176.71">s</tspan><tspan class="cls-119" x="368.48" y="176.71">?</tspan></tspan></text>
  <path class="cls-56" d="M5034.38,2838.48c0,2.55,2.07,4.62,4.62,4.62s4.62-2.07,4.62-4.62-2.07-4.62-4.62-4.62-4.62,2.07-4.62,4.62Z"/>
  <text class="cls-21" transform="translate(5025.21 2655.19)"><tspan x="0" y="0">APPLY NOW</tspan></text>
  <g>
    <g>
      <path class="cls-19" d="M4577.61,2657.71l-12.48,112.65s104.72,123.84,312.36,122.34l64.62-91.04-364.5-143.95Z"/>
      <polygon class="cls-19" points="4915.11 2833.02 4971.42 2855.39 4983.73 2828.13 4924.49 2806.16 4915.11 2833.02"/>
      <path class="cls-66" d="M4942.12,2801.66c-1.95,4.95-7.08,8.44-14.82,10.53-31.12,8.41-104.6-5.68-185.2-37.5-81.59-32.22-145.42-72.74-161.45-100.17-3.76-6.41-4.89-12.11-3.03-16.82,9.82-24.85,99.37-12.77,200.03,26.98,100.64,39.75,174.29,92.12,164.48,116.97Z"/>
      <path class="cls-82" d="M4927.29,2812.19c-31.12,8.41-104.6-5.68-185.2-37.5-81.59-32.22-145.42-72.74-161.45-100.17,31.12-8.41,104.6,5.67,185.2,37.5,81.58,32.22,145.42,72.73,161.45,100.17Z"/>
      <path class="cls-12" d="M4603.16,2698.91s124.2-20.29,304.61,115.65"/>
      <g>
        <path class="cls-18" d="M4967.7,2869.3s-5.53-27.02,20.99-52.01l200.86,77.55s8.81,29.47-27.18,52.44l-194.67-77.98Z"/>
        <g class="cls-62">
          <path class="cls-12" d="M4952.42,2886.32c12.27,2.12,24.76-3.85,33.78-12.43,9.02-8.58,15.28-19.57,21.94-30.09,6.66-10.52,14.11-20.99,24.61-27.67,10.5-6.68,24.77-8.79,35.32-2.19,10.55,6.61,14.28,23.32,5.35,31.99-4.66,4.52-11.37,6.04-17.73,7.34-6.36,1.3-13.07,2.74-17.83,7.14-4.77,4.4-6.43,12.84-1.65,17.23,5,4.58,13.05,2.07,18.91-1.35,5.86-3.41,12.38-7.67,18.88-5.74,10.36,3.07,12.13,19.25,22.52,22.22,8.18,2.34,15.8-5.19,19.93-12.63,4.13-7.44,7.67-16.27,15.49-19.63,10.09-4.33,22.49,4.38,24.12,15.23,1.63,10.85-5.45,21.67-14.98,27.11-9.53,5.44-20.99,6.39-31.95,5.77-10.96-.62-21.82-2.68-32.8-2.75-14.54-.09-31.67,5.75-35.17,19.87-3.4,13.74,9.16,27.3,22.98,30.34,13.82,3.05,28.07-1.39,41.53-5.77,11.32-3.69,23.07-7.63,31.63-15.9,5.93-5.73,10.19-13.42,17.42-17.4,11.16-6.14,25.82-.88,34.32,8.61,8.5,9.49,12.3,22.16,15.85,34.39,6.75-7.14,13.51-14.27,20.26-21.41"/>
        </g>
      </g>
      <path class="cls-13" d="M4579.25,2766.02s144.05,123.83,290.72,113"/>
    </g>
    <g>
      <path class="cls-66" d="M4708.7,2713.8c-2.24.84-4.63,1.12-7.01.67-4.2-.81-8.35-3.69-12.38-2.29-5.71,1.98-5.63,10.1-9.13,15.01-3.08,4.3-9.52,5.77-14.15,3.22-4.63-2.56-6.82-8.79-4.82-13.69,1.46-3.55,4.64-6.04,7.42-8.72,2.76-2.67,5.36-6.1,5.09-9.94-.18-2.33-1.7-4.25-3.9-5.01-2.97-1.02-4.91-1.85-6.08-4.29-.25-.5-.45-1.08-.63-1.74-.98-3.62-.72-7.73,1.21-10.99,3.05-5.15,9.07-8.03,15.03-8.46,5.96-.44,11.88,1.29,17.38,3.63,6.61,2.83,12.95,6.71,17.32,12.4,4.37,5.69,6.5,13.44,4.24,20.24-1.51,4.52-5.21,8.32-9.6,9.97Z"/>
      <path class="cls-19" d="M4708.7,2713.8c-2.66-2.05-2.96-6.32-2.89-9.88.06-3.98-.55-8.89-4.26-10.31-4.28-1.62-9.58,2.89-13.38.32-2.29-1.57-2.49-4.79-3.49-7.38-1.96-5.03-8.01-8.06-13.21-6.6-2.95.84-5.4,3.05-6.77,5.77-.47.92-.71,1.98-.96,3.03-.25-.5-.45-1.08-.63-1.74-.98-3.62-.72-7.73,1.21-10.99,3.05-5.15,9.07-8.03,15.03-8.46,5.96-.44,11.88,1.29,17.38,3.63,6.61,2.83,12.95,6.71,17.32,12.4,4.37,5.69,6.5,13.44,4.24,20.24-1.51,4.52-5.21,8.32-9.6,9.97Z"/>
    </g>
    <g>
      <path class="cls-66" d="M4857.28,2610.56c-1.38,2.3-3.29,4.22-5.69,5.48-4.26,2.22-9.91,2.58-12.47,6.62-3.63,5.72,2.11,12.8,2.46,19.55.3,5.93-4.34,11.71-10.19,12.7-5.85.97-12.13-2.97-13.78-8.67-1.19-4.14-.14-8.54.43-12.83.56-4.27.45-9.1-2.46-12.27-1.78-1.92-4.46-2.55-6.92-1.68-3.32,1.18-5.6,1.8-8.33.47-.57-.27-1.15-.63-1.77-1.08-3.39-2.5-6.03-6.29-6.61-10.5-.91-6.65,2.36-13.38,7.3-17.92,4.93-4.54,11.34-7.15,17.8-8.93,7.77-2.12,16.05-3.15,23.86-1.19,7.81,1.95,15.08,7.27,17.84,14.82,1.83,5.02,1.22,10.94-1.47,15.45Z"/>
      <path class="cls-19" d="M4857.28,2610.56c-3.77.05-7.01-3.49-9.43-6.66-2.72-3.54-6.68-7.42-10.94-6.08-4.89,1.56-6.4,9.22-11.52,9.61-3.11.22-5.53-2.47-8.22-4.04-5.23-3.05-12.66-1.49-16.21,3.42-2.01,2.79-2.61,6.45-1.91,9.79.23,1.14.76,2.24,1.27,3.33-.57-.27-1.15-.63-1.77-1.08-3.39-2.5-6.03-6.29-6.61-10.5-.91-6.65,2.36-13.38,7.3-17.92,4.93-4.54,11.34-7.15,17.8-8.93,7.77-2.12,16.05-3.15,23.86-1.19,7.81,1.95,15.08,7.27,17.84,14.82,1.83,5.02,1.22,10.94-1.47,15.45Z"/>
    </g>
    <g>
      <path class="cls-54" d="M4650.15,2605.18c2.04-8.52,6.09-16.91,13.09-22.17,7-5.26,17.34-6.63,24.52-1.62,6.58,4.59,9.34,13.3,15.94,17.87,6.1,4.23,14.46,4.2,20.41,8.64,4.41,3.29,6.92,8.76,7.3,14.25.38,5.49-1.19,10.99-3.72,15.88-6.82,13.22-21.01,22.32-35.86,23-15.01.69-26.48-6.81-36.43-17.18-9.06-9.43-8.12-26.61-5.24-38.68Z"/>
      <path class="cls-82" d="M4653.75,2606.84c1.83-7.65,5.47-15.19,11.75-19.91,6.29-4.73,15.57-5.96,22.03-1.46,5.91,4.12,8.39,11.94,14.31,16.05,5.48,3.8,12.99,3.77,18.33,7.76,3.96,2.96,6.21,7.87,6.55,12.8.34,4.93-1.07,9.87-3.34,14.27-6.13,11.87-18.87,20.04-32.21,20.66-13.48.62-23.78-6.12-32.72-15.43-8.14-8.47-7.3-23.9-4.7-34.74Z"/>
      <g>
        <path class="cls-66" d="M4674.41,2602.61c1.41.01,2.43.37,3.37.82.91.46,1.67,1.06,2.3,1.77.64.71,1.14,1.53,1.5,2.48.34.97.58,2.03.43,3.44-1.42,0-2.44-.37-3.37-.81-.91-.46-1.67-1.06-2.3-1.77-.63-.71-1.14-1.53-1.49-2.49-.33-.98-.58-2.03-.43-3.44Z"/>
        <path class="cls-66" d="M4668.03,2615.13c1.13-.85,2.16-1.18,3.17-1.4,1-.18,1.97-.17,2.9,0,.93.17,1.84.52,2.7,1.06.86.57,1.69,1.26,2.43,2.48-1.13.85-2.16,1.19-3.17,1.4-1,.18-1.97.17-2.9-.01-.93-.18-1.83-.53-2.7-1.07-.86-.57-1.69-1.26-2.43-2.47Z"/>
        <path class="cls-66" d="M4667.07,2628.05c.61-1.27,1.37-2.04,2.17-2.7.81-.62,1.67-1.06,2.58-1.33.91-.28,1.87-.38,2.89-.3,1.02.11,2.08.34,3.3,1.08-.61,1.28-1.37,2.05-2.17,2.71-.81.62-1.67,1.06-2.58,1.33-.91.27-1.87.38-2.89.3-1.03-.11-2.09-.34-3.29-1.07Z"/>
      </g>
      <g>
        <path class="cls-66" d="M4707,2619.63c-.85-1.13-1.75-1.73-2.67-2.21-.91-.45-1.85-.71-2.79-.79-.95-.09-1.91,0-2.89.28-.98.31-1.97.75-3.01,1.71.85,1.13,1.75,1.74,2.67,2.22.91.45,1.85.71,2.79.79.95.08,1.91,0,2.89-.29.98-.31,1.98-.75,3.01-1.71Z"/>
        <path class="cls-66" d="M4700.77,2632.22c0-1.41-.34-2.44-.78-3.38-.45-.91-1.04-1.68-1.74-2.33-.7-.64-1.52-1.16-2.47-1.53-.97-.35-2.02-.6-3.44-.47,0,1.42.34,2.45.77,3.38.45.91,1.04,1.68,1.74,2.32.7.64,1.52,1.16,2.47,1.52.97.35,2.02.6,3.43.47Z"/>
        <path class="cls-66" d="M4690.98,2640.71c.66-1.25.82-2.32.87-3.35.02-1.02-.15-1.97-.47-2.86-.32-.89-.81-1.73-1.48-2.49-.7-.76-1.52-1.47-2.83-2-.66,1.25-.83,2.33-.88,3.36-.02,1.02.15,1.97.48,2.86.33.89.82,1.73,1.49,2.49.7.76,1.52,1.47,2.83,2Z"/>
      </g>
      <path class="cls-54" d="M4688.36,2612.19c1.19-2.46,2.39-4.92,3.88-7.21.43-.66.97-1.37,1.75-1.5,1.1-.19,2.07.91,2.18,2.02.1,1.11-.4,2.17-.89,3.17-5.41,11.04-10.82,22.09-16.23,33.13-.27.55-.58,1.14-1.13,1.4-1.03.48-2.25-.56-2.39-1.68-.15-1.13.41-2.21.94-3.22.94-1.8,1-3.69,1.9-5.53,1.12-2.31,2.25-4.63,3.37-6.94,2.21-4.55,4.41-9.09,6.62-13.64Z"/>
    </g>
    <path class="cls-48" d="M4577.88,2651.46c-3.75-5.09.34-13.69,6.65-13.99-6.87-.03-12.91-6.56-12.7-13.42.2-6.86,6.33-12.93,13.19-13.36,6.85-.43,13.57,4.56,15.43,11.17-2.23-6.07,1.84-13.5,8.04-15.34,6.2-1.84,13.38,1.77,16.05,7.66,2.67,5.89.92,13.34-3.76,17.8,2.92-5.01,11.21-5,14.73-.39,3.52,4.61,2.02,11.91-2.56,15.47-4.58,3.55-11.34,3.52-16.41.71,3,1.66,1.6,17.04.76,19.81-1.51,4.99-4.59,9.52-10.23,9.55-13.77.08-12.35-18.82-13.87-27.48-2.92,5.18-11.39,7.13-15.32,1.81Z"/>
    <path class="cls-48" d="M4740.75,2510.2c5.89,2.3,7.02,11.75,1.85,15.38,5.82-3.64,14.42-1.35,17.91,4.56,3.49,5.91,1.55,14.31-4.01,18.34-5.56,4.03-13.91,3.39-19.01-1.2,5.13,3.95,5.65,12.39,1.4,17.26-4.26,4.87-12.26,5.65-17.66,2.1-5.41-3.55-7.9-10.79-6.33-17.06.2,5.8-6.81,10.22-12.25,8.2-5.44-2.02-8.07-8.99-6.1-14.44,1.98-5.45,7.71-9.03,13.5-9.36-3.43.2-10.46-13.55-11.23-16.34-1.39-5.03-1.21-10.5,3.54-13.54,11.6-7.42,20.49,9.32,26.41,15.83-.3-5.94,5.82-12.11,11.98-9.71Z"/>
    <path class="cls-66" d="M4634.28,2599.91c-11.71-6.31-17.99-21.68-15.67-34.99,2.07-13.96,12.68-26.34,26.29-30.18,8.82-2.61,18.55-1.64,25.85,2.95-8.55-.46-16.34,1.08-23,4.47-21.75,10.95-26.79,37.7-13.46,57.75h0Z"/>
    <path class="cls-66" d="M4796.1,2648.95c-10.35,8.36-26.95,8.21-38.33.94-12.08-7.31-19.39-21.88-17.68-35.91,1-9.15,5.66-17.75,12.71-22.7-3.72,7.71-5.31,15.49-4.76,22.94,1.7,24.29,24.42,39.28,48.06,34.73h0Z"/>
    <g>
      <path class="cls-66" d="M4597.59,2562.87c.91,1.51-1.43,4.34-2.22,5.61-1.13,1.81-5.8,9.41-8.54,5.88-2.09-2.69.75-6.27,2.66-8.13,1.27-1.23,2.82-2.38,4.46-3.05,2.24-.92,3.3-.88,3.65-.31Z"/>
      <path class="cls-66" d="M4615.28,2551.24c-.4,1.72-4.05,2.13-5.5,2.49-2.07.51-10.71,2.73-10.23-1.71.37-3.39,4.9-3.99,7.56-3.99,1.77,0,3.68.25,5.33.9,2.25.89,2.99,1.66,2.84,2.31Z"/>
      <path class="cls-66" d="M4589.42,2544.75c.91,1.51-1.43,4.34-2.22,5.61-1.13,1.81-5.8,9.41-8.54,5.88-2.09-2.69.75-6.27,2.66-8.13,1.27-1.23,2.82-2.38,4.46-3.05,2.24-.92,3.3-.88,3.65-.31Z"/>
    </g>
    <g>
      <path class="cls-66" d="M4853.89,2675.86c-1.76-.05-2.89-3.54-3.53-4.89-.91-1.93-4.81-9.95-.36-10.37,3.39-.31,4.89,4,5.42,6.61.35,1.73.49,3.65.18,5.4-.43,2.38-1.03,3.26-1.7,3.24Z"/>
      <path class="cls-66" d="M4854.18,2697.03c-1.23-1.26.38-4.56.86-5.97.68-2.02,3.46-10.5,6.94-7.7,2.66,2.13.73,6.27-.7,8.52-.95,1.49-2.19,2.97-3.63,4.01-1.96,1.41-3,1.63-3.48,1.15Z"/>
      <path class="cls-66" d="M4873.56,2678.72c-1.76-.05-2.89-3.54-3.53-4.89-.91-1.93-4.81-9.95-.36-10.37,3.39-.31,4.89,4,5.42,6.61.35,1.73.49,3.65.18,5.4-.43,2.38-1.03,3.26-1.7,3.24Z"/>
    </g>
    <path class="cls-48" d="M4816.94,2559.3c-2.39,3.31-5.18,5.62-8.08,7.7-2.91,2.04-5.99,3.67-9.2,5.01-3.21,1.33-6.54,2.36-10.04,2.98-3.52.58-7.13.93-11.16.27,2.38-3.32,5.18-5.63,8.07-7.71,2.91-2.03,5.99-3.67,9.2-4.99,3.21-1.32,6.54-2.35,10.04-2.97,3.52-.58,7.13-.93,11.16-.28Z"/>
    <path class="cls-48" d="M4649.21,2515.09c-3.91-1.17-7.01-3.05-9.92-5.11-2.88-2.08-5.43-4.46-7.75-7.05-2.31-2.59-4.37-5.4-6.11-8.5-1.7-3.13-3.21-6.43-3.91-10.46,3.92,1.16,7.02,3.04,9.93,5.1,2.88,2.09,5.43,4.46,7.74,7.05,2.3,2.6,4.36,5.41,6.1,8.51,1.7,3.13,3.21,6.43,3.92,10.45Z"/>
  </g>
  <g>
    <path class="cls-12" d="M5013.59,2757.18c-16.64,3.61-19.57,6.54-23.18,23.18-3.61-16.64-6.54-19.57-23.18-23.18,16.64-3.61,19.57-6.54,23.18-23.18,3.61,16.64,6.54,19.57,23.18,23.18Z"/>
    <path class="cls-12" d="M4724.5,2425.7c-16.64,3.61-19.57,6.54-23.18,23.18-3.61-16.64-6.54-19.57-23.18-23.18,16.64-3.61,19.57-6.54,23.18-23.18,3.61,16.64,6.54,19.57,23.18,23.18Z"/>
    <path class="cls-12" d="M4612.81,2887.64c-16.64,3.61-19.57,6.54-23.18,23.18-3.61-16.64-6.54-19.57-23.18-23.18,16.64-3.61,19.57-6.54,23.18-23.18,3.61,16.64,6.54,19.57,23.18,23.18Z"/>
  </g>
  <g>
    <path class="cls-12" d="M4866.02,2292.53c9.93,0,9.93,20,19.86,20s9.93-20,19.86-20,9.93,20,19.86,20,9.93-20,19.87-20,9.93,20,19.87,20"/>
    <path class="cls-12" d="M5168.34,2729.75c9.93,0,9.93,20,19.86,20s9.93-20,19.86-20,9.93,20,19.86,20,9.93-20,19.87-20,9.93,20,19.87,20"/>
    <path class="cls-12" d="M4831.24,2945.45c9.93,0,9.93,20,19.86,20s9.93-20,19.86-20,9.93,20,19.86,20,9.93-20,19.87-20,9.93,20,19.87,20"/>
  </g>
  <rect class="cls-71" x="2248.38" y="1465.04" width="1366" height="354.79"/>
  <g>
    <path class="cls-22" d="M2590.11,1718.58c1.57-1.09,6.55-4.61,9.02-6.49,11.65-8.85,33.73,1.96,45.49-7.18,10.19-7.93,36.72-36.31,36.72-36.31,1.8-1.9-7.74-12.25-10.86-9.16-7.2,7.13-28.79,28.53-28.79,28.53-2.7,4.17-10.31-4.44-10.41-6.5-.08-1.72,3.41-5.02,4.76-6.42,7.25-7.6,18.49-18.26,25.87-25.42,2.44-2.37-7.5-12.44-10.28-9.91,0,0-21.96,21.14-31.86,30.28-2.37,2.4-10-6.77-8.35-8.76.5-.61,2.04-2.3,2.72-3,4.74-4.85,26.76-26.91,27.17-27.32,3.01-3.02-7.52-11.99-10.37-9.15-7.77,7.77-32.27,31.69-32.27,31.69-12.46,13.13.76,35.19-10.11,48.81-1.94,2.44-4.97,4.19-7.28,6.75-1.38,1.53,6.98,10.85,8.82,9.56Z"/>
    <path class="cls-22" d="M2595.61,1639.74c1.11-.96,4.41-4.25,5.33-5.34,3.57-4.24-.29-5.52-1.95-9.82-5.78-14.94,5.77-31.08,21.85-29.66,12.63,1.12,19.42,13.05,28.14,20.72.99.81,2.45.81,3.44,0,9.88-9,17.61-22.44,32.97-20.63,3.65.43,8.76,2.59,11.48,5.09,7.43,6.8,9.38,18.46,4.35,27.23-2.79,4.87-20.2,20.42-20.47,22.25-.15.99.08,1.44.55,2.24.23.39,6.06,6.22,6.46,6.45,1.34.77,2.74.89,4,0,8.99-10.06,21.66-18.22,25.38-31.88,8.44-30.95-22.96-56.4-51.56-41.93-5.75,2.91-9.92,7.51-14.33,12.08-4.17-3.05-6.8-5.97-11.89-10-28.35-22.43-67.5,10.89-53.43,44.35,1.31,3.11,5.62,12.39,9.69,8.85Z"/>
  </g>
  <text class="cls-1" transform="translate(2746.36 1682.04)"><tspan class="cls-96" x="0" y="0">R</tspan><tspan class="cls-103" x="64.6" y="0">ez</tspan><tspan x="165.4" y="0">ep</tspan><tspan class="cls-117" x="272.7" y="0">t</tspan><tspan class="cls-98" x="311.4" y="0">w</tspan><tspan class="cls-83" x="390.2" y="0">e</tspan><tspan class="cls-90" x="439" y="0">l</tspan><tspan x="469.69" y="0">t </tspan></text>
  <rect class="cls-77" x="2249.24" y="1977.62" width="109.57" height="127.71"/>
  <rect class="cls-113" x="2249.24" y="1849.79" width="109.57" height="127.71"/>
  <rect class="cls-22" x="2249.24" y="1721.96" width="109.57" height="127.71"/>
  <rect class="cls-80" x="2249.24" y="2105.33" width="109.57" height="127.71"/>
  <rect class="cls-8" x="2248.38" y="1466.53" width="109.57" height="127.71"/>
  <rect class="cls-49" x="2248.38" y="1594.25" width="109.57" height="127.71"/>
  <rect class="cls-77" x="2249.24" y="1084.86" width="109.57" height="96.48"/>
  <rect class="cls-72" x="2249.24" y="988.29" width="109.57" height="96.48"/>
  <rect class="cls-82" x="2248.38" y="795.14" width="109.57" height="96.48"/>
  <rect class="cls-71" x="2249.24" y="1271.72" width="109.57" height="96.48"/>
  <rect class="cls-53" x="2248.38" y="698.66" width="109.57" height="96.48"/>
  <rect class="cls-50" x="2248.38" y="602.17" width="109.57" height="96.48"/>
  <rect class="cls-52" x="2248.38" y="891.71" width="109.57" height="96.48"/>
  <rect class="cls-80" x="2249.24" y="1181.43" width="109.57" height="96.48"/>
  <g>
    <path class="cls-82" d="M2590.11,1228.91c1.57-1.09,6.55-4.61,9.02-6.49,11.65-8.85,33.73,1.96,45.49-7.18,10.19-7.93,36.72-36.31,36.72-36.31,1.8-1.9-7.74-12.25-10.86-9.16-7.2,7.13-28.79,28.53-28.79,28.53-2.7,4.17-10.31-4.44-10.41-6.5-.08-1.72,3.41-5.02,4.76-6.42,7.25-7.6,18.49-18.26,25.87-25.42,2.44-2.37-7.5-12.44-10.28-9.91,0,0-21.96,21.14-31.86,30.28-2.37,2.4-10-6.77-8.35-8.76.5-.61,2.04-2.3,2.72-3,4.74-4.85,26.76-26.91,27.17-27.32,3.01-3.02-7.52-11.99-10.37-9.15-7.77,7.77-32.27,31.69-32.27,31.69-12.46,13.13.76,35.19-10.11,48.81-1.94,2.44-4.97,4.19-7.28,6.75-1.38,1.53,6.98,10.85,8.82,9.56Z"/>
    <path class="cls-82" d="M2595.61,1150.06c1.11-.96,4.41-4.25,5.33-5.34,3.57-4.24-.29-5.52-1.95-9.82-5.78-14.94,5.77-31.08,21.85-29.66,12.63,1.12,19.42,13.05,28.14,20.72.99.81,2.45.81,3.44,0,9.88-9,17.61-22.44,32.97-20.63,3.65.43,8.76,2.59,11.48,5.09,7.43,6.8,9.38,18.46,4.35,27.23-2.79,4.87-20.2,20.42-20.47,22.25-.15.99.08,1.44.55,2.24.23.39,6.06,6.22,6.46,6.45,1.34.77,2.74.89,4,0,8.99-10.06,21.66-18.22,25.38-31.88,8.44-30.95-22.96-56.4-51.56-41.93-5.75,2.91-9.92,7.51-14.33,12.08-4.17-3.05-6.8-5.97-11.89-10-28.35-22.43-67.5,10.89-53.43,44.35,1.31,3.11,5.62,12.39,9.69,8.85Z"/>
  </g>
  <text class="cls-6" transform="translate(2746.36 1192.36)"><tspan class="cls-96" x="0" y="0">R</tspan><tspan class="cls-103" x="64.6" y="0">ez</tspan><tspan x="165.4" y="0">ep</tspan><tspan class="cls-117" x="272.7" y="0">t</tspan><tspan class="cls-98" x="311.4" y="0">w</tspan><tspan class="cls-83" x="390.2" y="0">e</tspan><tspan class="cls-90" x="439" y="0">l</tspan><tspan x="469.69" y="0">t </tspan></text>
  <g>
    <path class="cls-22" d="M2590.11,2091.78c1.57-1.09,6.55-4.61,9.02-6.49,11.65-8.85,33.73,1.96,45.49-7.18,10.19-7.93,36.72-36.31,36.72-36.31,1.8-1.9-7.74-12.25-10.86-9.16-7.2,7.13-28.79,28.53-28.79,28.53-2.7,4.17-10.31-4.44-10.41-6.5-.08-1.72,3.41-5.02,4.76-6.42,7.25-7.6,18.49-18.26,25.87-25.42,2.44-2.37-7.5-12.44-10.28-9.91,0,0-21.96,21.14-31.86,30.28-2.37,2.4-10-6.77-8.35-8.76.5-.61,2.04-2.3,2.72-3,4.74-4.85,26.76-26.91,27.17-27.32,3.01-3.02-7.52-11.99-10.37-9.15-7.77,7.77-32.27,31.69-32.27,31.69-12.46,13.13.76,35.19-10.11,48.81-1.94,2.44-4.97,4.19-7.28,6.75-1.38,1.53,6.98,10.85,8.82,9.56Z"/>
    <path class="cls-22" d="M2595.61,2012.93c1.11-.96,4.41-4.25,5.33-5.34,3.57-4.24-.29-5.52-1.95-9.82-5.78-14.94,5.77-31.08,21.85-29.66,12.63,1.12,19.42,13.05,28.14,20.72.99.81,2.45.81,3.44,0,9.88-9,17.61-22.44,32.97-20.63,3.65.43,8.76,2.59,11.48,5.09,7.43,6.8,9.38,18.46,4.35,27.23-2.79,4.87-20.2,20.42-20.47,22.25-.15.99.08,1.44.55,2.24.23.39,6.06,6.22,6.46,6.45,1.34.77,2.74.89,4,0,8.99-10.06,21.66-18.22,25.38-31.88,8.44-30.95-22.96-56.4-51.56-41.93-5.75,2.91-9.92,7.51-14.33,12.08-4.17-3.05-6.8-5.97-11.89-10-28.35-22.43-67.5,10.89-53.43,44.35,1.31,3.11,5.62,12.39,9.69,8.85Z"/>
  </g>
  <text class="cls-1" transform="translate(2746.36 2055.23)"><tspan class="cls-96" x="0" y="0">R</tspan><tspan class="cls-103" x="64.6" y="0">ez</tspan><tspan x="165.4" y="0">ep</tspan><tspan class="cls-117" x="272.7" y="0">t</tspan><tspan class="cls-98" x="311.4" y="0">w</tspan><tspan class="cls-83" x="390.2" y="0">e</tspan><tspan class="cls-90" x="439" y="0">l</tspan><tspan x="469.69" y="0">t </tspan></text>
  <rect class="cls-51" x="2061.15" y="426.04" width="109.57" height="96.48"/>
  <path class="cls-82" d="M4390.32,1290.97h236.13v44.8c0,24.73-20.08,44.8-44.8,44.8h-191.33c-24.73,0-44.8-20.08-44.8-44.8h0c0-24.73,20.08-44.8,44.8-44.8Z"/>
  <rect class="cls-81" x="3732.5" y="603.94" width="1227.55" height="126.25"/>
  <g>
    <path class="cls-82" d="M3811.03,696.63c.58-.4,2.43-1.71,3.35-2.41,4.32-3.28,12.52.73,16.88-2.66,3.78-2.94,13.62-13.47,13.62-13.47.67-.7-2.87-4.54-4.03-3.4-2.67,2.64-10.68,10.59-10.68,10.59-1,1.55-3.82-1.65-3.86-2.41-.03-.64,1.27-1.86,1.77-2.38,2.69-2.82,6.86-6.78,9.6-9.43.91-.88-2.78-4.62-3.81-3.68,0,0-8.15,7.85-11.82,11.23-.88.89-3.71-2.51-3.1-3.25.19-.23.76-.86,1.01-1.11,1.76-1.8,9.93-9.99,10.08-10.14,1.12-1.12-2.79-4.45-3.85-3.39-2.88,2.88-11.97,11.76-11.97,11.76-4.62,4.87.28,13.06-3.75,18.11-.72.9-1.84,1.55-2.7,2.5-.51.57,2.59,4.02,3.27,3.55Z"/>
    <path class="cls-82" d="M3813.07,667.38c.41-.36,1.63-1.58,1.98-1.98,1.33-1.57-.11-2.05-.73-3.64-2.14-5.54,2.14-11.53,8.11-11,4.69.42,7.21,4.84,10.44,7.69.37.3.91.3,1.28,0,3.67-3.34,6.53-8.33,12.23-7.65,1.36.16,3.25.96,4.26,1.89,2.76,2.52,3.48,6.85,1.61,10.1-1.04,1.81-7.5,7.58-7.6,8.26-.05.37.03.53.21.83.09.15,2.25,2.31,2.4,2.39.5.29,1.02.33,1.48,0,3.34-3.73,8.04-6.76,9.42-11.83,3.13-11.48-8.52-20.93-19.13-15.56-2.13,1.08-3.68,2.79-5.32,4.48-1.55-1.13-2.52-2.22-4.41-3.71-10.52-8.32-25.05,4.04-19.82,16.46.49,1.15,2.09,4.6,3.6,3.28Z"/>
  </g>
  <text class="cls-7" transform="translate(3869 683.07)"><tspan class="cls-97" x="0" y="0">R</tspan><tspan class="cls-104" x="23.97" y="0">ez</tspan><tspan x="61.37" y="0">ep</tspan><tspan class="cls-121" x="101.18" y="0">t</tspan><tspan class="cls-94" x="115.54" y="0">w</tspan><tspan class="cls-84" x="144.78" y="0">e</tspan><tspan class="cls-91" x="162.88" y="0">l</tspan><tspan x="174.28" y="0">t </tspan></text>
  <text class="cls-45" transform="translate(4178.87 680.46)"><tspan x="0" y="0" xml:space="preserve">REZEPTE      BER UNS </tspan></text>
  <line class="cls-16" x1="4125.42" y1="642.09" x2="4125.91" y2="696.19"/>
  <text class="cls-45" transform="translate(4497.96 680.89)"><tspan x="0" y="0">SIGN UP </tspan></text>
  <g>
    <path class="cls-82" d="M5107.83,743.3c1.57-1.09,6.55-4.61,9.02-6.49,11.65-8.85,33.73,1.96,45.49-7.18,10.19-7.93,36.72-36.31,36.72-36.31,1.8-1.9-7.74-12.25-10.86-9.16-7.2,7.13-28.79,28.53-28.79,28.53-2.7,4.17-10.31-4.44-10.41-6.5-.08-1.72,3.41-5.02,4.76-6.42,7.25-7.6,18.49-18.26,25.87-25.42,2.44-2.37-7.5-12.44-10.28-9.91,0,0-21.96,21.14-31.86,30.28-2.37,2.4-10-6.77-8.35-8.76.5-.61,2.04-2.3,2.72-3,4.74-4.85,26.76-26.91,27.17-27.32,3.01-3.02-7.52-11.99-10.37-9.15-7.77,7.77-32.27,31.69-32.27,31.69-12.46,13.13.76,35.19-10.11,48.81-1.94,2.44-4.97,4.19-7.28,6.75-1.38,1.53,6.98,10.85,8.82,9.56Z"/>
    <path class="cls-82" d="M5113.33,664.45c1.11-.96,4.41-4.25,5.33-5.34,3.57-4.24-.29-5.52-1.95-9.82-5.78-14.94,5.77-31.08,21.85-29.66,12.63,1.12,19.42,13.05,28.14,20.72.99.81,2.45.81,3.44,0,9.88-9,17.61-22.44,32.97-20.63,3.65.43,8.76,2.59,11.48,5.09,7.43,6.8,9.38,18.46,4.35,27.23-2.79,4.87-20.2,20.42-20.47,22.25-.15.99.08,1.44.55,2.24.23.39,6.06,6.22,6.46,6.45,1.34.77,2.74.89,4,0,8.99-10.06,21.66-18.22,25.38-31.88,8.44-30.95-22.96-56.4-51.56-41.93-5.75,2.91-9.92,7.51-14.33,12.08-4.17-3.05-6.8-5.97-11.89-10-28.35-22.43-67.5,10.89-53.43,44.35,1.31,3.11,5.62,12.39,9.69,8.85Z"/>
  </g>
  <g>
    <path class="cls-53" d="M5321.28,707.46c-4.27,0-7.53-.72-9.8-2.15-2.27-1.43-3.93-3.35-5-5.75-1.07-2.4-2-5.03-2.8-7.9-.47-1.93-1.05-3.93-1.75-6-.7-2.07-1.52-3.9-2.45-5.5-.93-1.6-2.07-2.63-3.4-3.1h-6.6v18.3c0,1.87.67,3.18,2,3.95,1.33.77,2.97,1.15,4.9,1.15,0,2.4-.73,4.5-2.2,6.3h-25.1c-1.53-1.87-2.3-3.97-2.3-6.3,2.27,0,3.92-.38,4.95-1.15,1.03-.77,1.55-2.08,1.55-3.95v-47c0-1.87-.53-3.18-1.6-3.95-1.07-.77-2.73-1.15-5-1.15,0-1.13.17-2.27.5-3.4.33-1.13.83-2.1,1.5-2.9,2.87,0,5.53-.05,8-.15,2.46-.1,4.73-.18,6.8-.25,1.8-.13,3.78-.23,5.95-.3,2.17-.07,4.28-.1,6.35-.1,6.93,0,12.45.8,16.55,2.4,4.1,1.6,7.05,3.83,8.85,6.7,1.8,2.87,2.7,6.27,2.7,10.2,0,9.73-5.37,15.7-16.1,17.9,2.93.87,5.78,2.93,8.55,6.2,2.77,3.27,4.85,7.2,6.25,11.8.73,2.47,1.68,4.33,2.85,5.6,1.17,1.27,2.68,2.03,4.55,2.3v5c-.87,1.27-2.1,2.12-3.7,2.55-1.6.43-3.27.65-5,.65ZM5293.88,670.16c4.07,0,7.22-1.27,9.45-3.8,2.23-2.53,3.35-5.83,3.35-9.9s-.97-7.28-2.9-9.45c-1.93-2.17-5.07-3.25-9.4-3.25-.67,0-1.52.03-2.55.1-1.03.07-1.82.17-2.35.3v25.8c.47.07,1.2.12,2.2.15,1,.03,1.73.05,2.2.05Z"/>
    <path class="cls-53" d="M5356.08,707.66c-7.47,0-13.42-2.37-17.85-7.1-4.43-4.73-6.65-11.33-6.65-19.8,0-5.8,1.1-10.82,3.3-15.05,2.2-4.23,5.18-7.48,8.95-9.75,3.77-2.27,8.05-3.4,12.85-3.4,6,0,10.82,1.75,14.45,5.25,3.63,3.5,5.45,8.42,5.45,14.75,0,2.53-.42,4.75-1.25,6.65-.83,1.9-2.55,2.85-5.15,2.85h-21.6c.2,5.27,1.42,9,3.65,11.2,2.23,2.2,5.15,3.3,8.75,3.3,2.27,0,4.37-.35,6.3-1.05,1.93-.7,3.73-1.68,5.4-2.95.6.53,1.08,1.35,1.45,2.45.37,1.1.55,2.02.55,2.75,0,1.07-.75,2.38-2.25,3.95-1.5,1.57-3.63,2.95-6.4,4.15-2.77,1.2-6.08,1.8-9.95,1.8ZM5348.58,674.46h10.1c1.13,0,1.85-.43,2.15-1.3.3-.87.45-1.93.45-3.2,0-4.27-.52-7.08-1.55-8.45-1.03-1.37-2.25-2.05-3.65-2.05-1.13,0-2.27.43-3.4,1.3-1.13.87-2.07,2.38-2.8,4.55-.73,2.17-1.17,5.22-1.3,9.15Z"/>
    <path class="cls-53" d="M5382.58,706.76l-2.8-3.8,24.8-37.2,4.8-5.3h-8.4c-3.13,0-5.4.87-6.8,2.6-1.4,1.73-2.1,4.6-2.1,8.6h-8c-.87-2.4-1.35-5.17-1.45-8.3-.1-3.13-.18-6.33-.25-9.6h42.5l3,4.1-22.9,35.8-6,6.3h6.6c3.4,0,6.03-.53,7.9-1.6,1.87-1.07,3.27-2.55,4.2-4.45.93-1.9,1.73-4.15,2.4-6.75h7.5v3.5c0,2.6-.13,5.35-.4,8.25-.27,2.9-1,5.52-2.2,7.85h-42.4Z"/>
    <path class="cls-53" d="M5456.88,707.66c-7.47,0-13.42-2.37-17.85-7.1-4.43-4.73-6.65-11.33-6.65-19.8,0-5.8,1.1-10.82,3.3-15.05,2.2-4.23,5.18-7.48,8.95-9.75,3.77-2.27,8.05-3.4,12.85-3.4,6,0,10.81,1.75,14.45,5.25,3.63,3.5,5.45,8.42,5.45,14.75,0,2.53-.42,4.75-1.25,6.65-.84,1.9-2.55,2.85-5.15,2.85h-21.6c.2,5.27,1.41,9,3.65,11.2s5.15,3.3,8.75,3.3c2.27,0,4.37-.35,6.3-1.05s3.73-1.68,5.4-2.95c.6.53,1.08,1.35,1.45,2.45.37,1.1.55,2.02.55,2.75,0,1.07-.75,2.38-2.25,3.95-1.5,1.57-3.63,2.95-6.4,4.15-2.77,1.2-6.08,1.8-9.95,1.8ZM5449.38,674.46h10.1c1.13,0,1.85-.43,2.15-1.3.3-.87.45-1.93.45-3.2,0-4.27-.52-7.08-1.55-8.45-1.03-1.37-2.25-2.05-3.65-2.05-1.13,0-2.27.43-3.4,1.3-1.13.87-2.07,2.38-2.8,4.55-.73,2.17-1.17,5.22-1.3,9.15Z"/>
    <path class="cls-53" d="M5484.98,725.76c-.73-.73-1.32-1.53-1.75-2.4-.43-.87-.65-1.83-.65-2.9,2,0,3.28-.43,3.85-1.3.57-.87.85-2.27.85-4.2v-47.9c0-1.73-.48-3-1.45-3.8-.97-.8-2.72-1.2-5.25-1.2v-4.5c1.47-.87,3.22-1.67,5.25-2.4,2.03-.73,4.02-1.32,5.95-1.75,1.93-.43,3.47-.65,4.6-.65,1.33,0,2.45.27,3.35.8.9.53,1.55,1.6,1.95,3.2,1.53-1.47,3.35-2.5,5.45-3.1,2.1-.6,4.32-.9,6.65-.9,3.53,0,6.83.92,9.9,2.75,3.07,1.83,5.55,4.58,7.45,8.25,1.9,3.67,2.85,8.33,2.85,14,0,6.33-1.22,11.75-3.65,16.25s-5.7,7.93-9.8,10.3c-4.1,2.37-8.65,3.55-13.65,3.55-.54,0-1.13-.02-1.8-.05-.67-.03-1.37-.08-2.1-.15v7.3c0,1.93.7,3.33,2.1,4.2,1.4.87,2.83,1.3,4.3,1.3,0,2-.77,3.77-2.3,5.3h-22.1ZM5506.78,700.56c2.73,0,5.07-1.6,7-4.8,1.93-3.2,2.9-8.4,2.9-15.6,0-4.6-.48-8.25-1.45-10.95-.97-2.7-2.28-4.63-3.95-5.8-1.67-1.17-3.5-1.75-5.5-1.75-1.07,0-2,.2-2.8.6v37.3c1.13.67,2.4,1,3.8,1Z"/>
    <path class="cls-53" d="M5559.58,707.46c-2.8,0-5.37-.52-7.7-1.55-2.33-1.03-4.22-2.82-5.65-5.35-1.43-2.53-2.15-6-2.15-10.4v-27.5h-6.3v-6.1c1.8-.27,3.5-1.4,5.1-3.4,1.6-2,2.98-4.47,4.15-7.4,1.17-2.93,1.92-5.87,2.25-8.8,1.2-.2,2.3-.3,3.3-.3,2.67,0,4.52.77,5.55,2.3,1.03,1.53,1.55,2.97,1.55,4.3v10.5h11.6c0,1.6-.08,3.18-.25,4.75-.17,1.57-.62,2.95-1.35,4.15h-9.8v28.2c0,2.13.43,3.55,1.3,4.25.87.7,1.96,1.05,3.3,1.05s2.68-.35,4.05-1.05c1.37-.7,2.45-1.52,3.25-2.45.73.6,1.23,1.48,1.5,2.65.27,1.17.4,2.05.4,2.65,0,1.47-.5,2.93-1.5,4.4-1,1.47-2.55,2.68-4.65,3.65s-4.75,1.45-7.95,1.45Z"/>
    <path class="cls-53" d="M5591.98,707.46l-13.6-42.6c-.6-1.8-1.29-3.12-2.05-3.95-.77-.83-2.02-1.25-3.75-1.25,0-1.07.17-2.15.5-3.25.33-1.1.87-2.02,1.6-2.75h22.5c.73.73,1.3,1.65,1.7,2.75.4,1.1.6,2.18.6,3.25-1.33,0-2.45.37-3.35,1.1-.9.73-1.35,1.87-1.35,3.4,0,.27.05.6.15,1,.1.4.18.77.25,1.1l2.6,13.6,3,14.1,4.4-14.1,2.9-10.4c.8-3.13,1.68-5.78,2.65-7.95.97-2.17,2.65-3.25,5.05-3.25h7.7l5.2,21.5,4.4,13.8,2.2-13.8,3.3-14.1c.27-1,.4-1.9.4-2.7,0-2.2-1.33-3.3-4-3.3,0-1.07.13-2.15.4-3.25.27-1.1.77-2.02,1.5-2.75h19.1c.8.73,1.33,1.65,1.6,2.75.27,1.1.4,2.18.4,3.25-1.87,0-3.32.32-4.35.95-1.04.63-1.82,1.85-2.35,3.65l-8.9,32.3c-.67,2.6-1.37,4.7-2.1,6.3-.73,1.6-1.68,2.77-2.85,3.5-1.17.73-2.85,1.1-5.05,1.1h-7.9l-9.4-30-5.4,19.3c-.87,3.27-1.77,5.75-2.7,7.45-.93,1.7-2.53,2.75-4.8,3.15v.1h-10.2Z"/>
    <path class="cls-53" d="M5681.68,707.66c-7.47,0-13.42-2.37-17.85-7.1-4.43-4.73-6.65-11.33-6.65-19.8,0-5.8,1.1-10.82,3.3-15.05,2.2-4.23,5.18-7.48,8.95-9.75,3.77-2.27,8.05-3.4,12.85-3.4,6,0,10.82,1.75,14.45,5.25,3.63,3.5,5.45,8.42,5.45,14.75,0,2.53-.42,4.75-1.25,6.65-.83,1.9-2.55,2.85-5.15,2.85h-21.6c.2,5.27,1.42,9,3.65,11.2,2.23,2.2,5.15,3.3,8.75,3.3,2.27,0,4.37-.35,6.3-1.05s3.73-1.68,5.4-2.95c.6.53,1.08,1.35,1.45,2.45.37,1.1.55,2.02.55,2.75,0,1.07-.75,2.38-2.25,3.95-1.5,1.57-3.63,2.95-6.4,4.15-2.77,1.2-6.08,1.8-9.95,1.8ZM5674.18,674.46h10.1c1.13,0,1.85-.43,2.15-1.3.3-.87.45-1.93.45-3.2,0-4.27-.52-7.08-1.55-8.45-1.03-1.37-2.25-2.05-3.65-2.05-1.13,0-2.27.43-3.4,1.3-1.13.87-2.07,2.38-2.8,4.55-.73,2.17-1.17,5.22-1.3,9.15Z"/>
    <path class="cls-53" d="M5708.28,706.76c-.73-.8-1.3-1.63-1.7-2.5-.4-.87-.6-1.83-.6-2.9,1.93,0,3.33-.42,4.2-1.25.87-.83,1.3-2.25,1.3-4.25v-53.1c0-1.53-.43-2.75-1.3-3.65-.87-.9-2.7-1.35-5.5-1.35v-4c1.67-.93,3.62-1.75,5.85-2.45,2.23-.7,4.45-1.27,6.65-1.7,2.2-.43,4.03-.65,5.5-.65s2.65.33,3.35,1c.7.67,1.05,1.83,1.05,3.5v62.4c0,2.07.42,3.5,1.25,4.3.83.8,2.25,1.2,4.25,1.2,0,1.07-.22,2.03-.65,2.9-.43.87-1.02,1.7-1.75,2.5h-21.9Z"/>
    <path class="cls-53" d="M5756.58,707.46c-2.8,0-5.37-.52-7.7-1.55-2.33-1.03-4.22-2.82-5.65-5.35-1.43-2.53-2.15-6-2.15-10.4v-27.5h-6.3v-6.1c1.8-.27,3.5-1.4,5.1-3.4,1.6-2,2.98-4.47,4.15-7.4,1.17-2.93,1.92-5.87,2.25-8.8,1.2-.2,2.3-.3,3.3-.3,2.67,0,4.52.77,5.55,2.3,1.03,1.53,1.55,2.97,1.55,4.3v10.5h11.6c0,1.6-.08,3.18-.25,4.75-.17,1.57-.62,2.95-1.35,4.15h-9.8v28.2c0,2.13.43,3.55,1.3,4.25.87.7,1.96,1.05,3.3,1.05s2.68-.35,4.05-1.05c1.37-.7,2.45-1.52,3.25-2.45.73.6,1.23,1.48,1.5,2.65.27,1.17.4,2.05.4,2.65,0,1.47-.5,2.93-1.5,4.4-1,1.47-2.55,2.68-4.65,3.65s-4.75,1.45-7.95,1.45Z"/>
  </g>
</svg>